<?xml version="1.0" encoding="UTF-8"?>
<svg version="1.1" xmlns="http://www.w3.org/2000/svg" width="574" height="151">
<path d="M0 0 C0.60457031 0.19980469 1.20914063 0.39960938 1.83203125 0.60546875 C2.3451337 7.33281201 1.60444021 13.15555102 -0.16796875 19.60546875 C-2.96472125 29.03902136 -2.96472125 29.03902136 -2.16796875 38.60546875 C0.4986513 41.55029916 3.4426667 43.56800575 6.83203125 45.60546875 C7.83203125 46.60546875 7.83203125 46.60546875 8.125 49.37890625 C7.76860766 53.30397391 6.84038905 54.41361195 4.14453125 57.23046875 C3.3246875 58.08769531 2.50484375 58.94492188 1.66015625 59.828125 C-3.49473439 64.89045545 -8.79931316 69.77168541 -14.16796875 74.60546875 C-15.575625 75.88550781 -15.575625 75.88550781 -17.01171875 77.19140625 C-19.38519513 79.34326284 -21.77397493 81.47650873 -24.16796875 83.60546875 C-24.76480469 84.15460938 -25.36164063 84.70375 -25.9765625 85.26953125 C-29.0604371 88.02271606 -29.83426207 88.60546875 -34.16796875 88.60546875 C-34.76429498 80.93605085 -33.54693301 74.27385238 -31.66992188 66.90478516 C-30.22694475 61.15744347 -29.42412098 55.53539282 -29.16796875 49.60546875 C-29.76222656 49.31800781 -30.35648438 49.03054687 -30.96875 48.734375 C-34.19615812 47.07767705 -37.58863619 45.18480131 -40.16796875 42.60546875 C-40.66796875 40.04296875 -40.66796875 40.04296875 -40.16796875 36.60546875 C-38.14323616 33.63746312 -35.69350166 31.15080976 -33.16796875 28.60546875 C-32.59304687 28.00476563 -32.018125 27.4040625 -31.42578125 26.78515625 C-27.84407026 23.10441178 -24.05557217 19.72184372 -20.15625 16.3828125 C-17.52094827 14.02709092 -15.1105382 11.48401768 -12.7109375 8.890625 C-11.16796875 7.60546875 -11.16796875 7.60546875 -8.16796875 7.60546875 C-8.07515625 6.73921875 -8.07515625 6.73921875 -7.98046875 5.85546875 C-6.68408643 2.26548695 -4.01044933 -0.72982952 0 0 Z " fill="#D44444" transform="translate(166.16796875,30.39453125)"/>
<path d="M0 0 C1.12535156 -0.05607422 1.12535156 -0.05607422 2.2734375 -0.11328125 C5.81846278 0.5285921 7.08425848 1.69916586 9.625 4.3125 C11.89729549 7.8921487 13.85649063 11.61530338 15.8125 15.375 C16.86752054 17.36639911 17.92346949 19.3573067 18.98046875 21.34765625 C19.44090576 22.2281665 19.90134277 23.10867676 20.37573242 24.01586914 C21.67044166 26.47782706 21.67044166 26.47782706 23.625 29.3125 C23.66258423 28.10134521 23.66258423 28.10134521 23.70092773 26.86572266 C23.81665487 23.22281083 23.93948635 19.58017274 24.0625 15.9375 C24.10181641 14.66648437 24.14113281 13.39546875 24.18164062 12.0859375 C24.24448242 10.26835938 24.24448242 10.26835938 24.30859375 8.4140625 C24.34525146 7.29338379 24.38190918 6.17270508 24.41967773 5.01806641 C24.625 2.3125 24.625 2.3125 25.625 0.3125 C27.08292884 0.25850264 28.54142712 0.21970823 30 0.1875 C30.81210937 0.16429687 31.62421875 0.14109375 32.4609375 0.1171875 C34.625 0.3125 34.625 0.3125 36.625 2.3125 C36.89242554 4.23446655 36.89242554 4.23446655 36.91552734 6.60693359 C36.92828705 7.4948056 36.94104675 8.38267761 36.95419312 9.29745483 C36.95641876 10.25890411 36.95864441 11.22035339 36.9609375 12.2109375 C36.9675943 13.19744293 36.9742511 14.18394836 36.98110962 15.2003479 C36.99124764 17.29012178 36.99592629 19.37992811 36.99560547 21.46972656 C36.99997318 24.66786122 37.03626599 27.86461022 37.07421875 31.0625 C37.08008772 33.0911411 37.08405658 35.11978878 37.0859375 37.1484375 C37.10030853 38.10583832 37.11467957 39.06323914 37.12948608 40.0496521 C37.08387173 46.67821585 37.08387173 46.67821585 34.74414062 49.91235352 C32.22490711 51.57684709 30.7576318 51.87968478 27.75 51.875 C26.92757812 51.89691406 26.10515625 51.91882813 25.2578125 51.94140625 C20.20070965 50.73340394 17.63150783 47.8933469 14.93115234 43.65209961 C13.13481788 40.46695353 11.42847994 37.24873211 9.75 34 C9.15703125 32.87787109 8.5640625 31.75574219 7.953125 30.59960938 C6.49865027 27.84314517 5.05648613 25.08095217 3.625 22.3125 C3.59994385 23.12517334 3.5748877 23.93784668 3.54907227 24.77514648 C3.43350882 28.43360752 3.31060416 32.09178528 3.1875 35.75 C3.12852539 37.6690918 3.12852539 37.6690918 3.06835938 39.62695312 C3.02646484 40.84189453 2.98457031 42.05683594 2.94140625 43.30859375 C2.88641968 44.99746704 2.88641968 44.99746704 2.83032227 46.72045898 C2.625 49.3125 2.625 49.3125 1.625 50.3125 C-0.03929051 50.41073937 -1.70781931 50.44223631 -3.375 50.4375 C-4.73625 50.44136719 -4.73625 50.44136719 -6.125 50.4453125 C-8.375 50.3125 -8.375 50.3125 -9.375 49.3125 C-9.4781035 47.95250572 -9.5134888 46.58726875 -9.52026367 45.22338867 C-9.52664352 44.35546188 -9.53302338 43.4875351 -9.53959656 42.5933075 C-9.54070938 41.64857071 -9.5418222 40.70383392 -9.54296875 39.73046875 C-9.54629715 38.76474442 -9.54962555 37.79902008 -9.55305481 36.80403137 C-9.55812927 34.75534544 -9.56046298 32.7066512 -9.56030273 30.65795898 C-9.56248345 27.52378654 -9.58061776 24.38996919 -9.59960938 21.25585938 C-9.60254433 19.26823037 -9.60452844 17.2805997 -9.60546875 15.29296875 C-9.61265427 14.35430466 -9.61983978 13.41564056 -9.62724304 12.4485321 C-9.62416641 11.57114883 -9.62108978 10.69376556 -9.61791992 9.78979492 C-9.62005745 8.63515999 -9.62005745 8.63515999 -9.62223816 7.4571991 C-9.33602159 4.97437681 -8.74743199 3.3994705 -7.375 1.3125 C-4.67288939 0.41179646 -2.80431069 0.09092475 0 0 Z " fill="#CF4445" transform="translate(372.375,48.6875)"/>
<path d="M0 0 C0.7321875 -0.01289062 1.464375 -0.02578125 2.21875 -0.0390625 C7.3397341 1.45163493 10.04170609 6.14671109 12.53100586 10.58691406 C12.85077393 11.17698242 13.17054199 11.76705078 13.5 12.375 C13.8410376 12.98827148 14.1820752 13.60154297 14.53344727 14.23339844 C15.21356786 15.45829065 15.89017909 16.68513909 16.56298828 17.9140625 C17.83860717 20.24328011 19.13983571 22.55801101 20.4375 24.875 C21.49356603 26.77949874 22.5260978 28.6771956 23.5 30.625 C23.53758423 29.36840576 23.53758423 29.36840576 23.57592773 28.08642578 C23.67100357 24.98147744 23.77024025 21.87669819 23.87231445 18.77197266 C23.93698251 16.76605193 23.99683106 14.75997772 24.05664062 12.75390625 C24.11948242 10.86865234 24.11948242 10.86865234 24.18359375 8.9453125 C24.22025146 7.78273926 24.25690918 6.62016602 24.29467773 5.42236328 C24.5 2.625 24.5 2.625 25.5 0.625 C26.95792884 0.57100264 28.41642712 0.53220823 29.875 0.5 C30.68710937 0.47679687 31.49921875 0.45359375 32.3359375 0.4296875 C34.5 0.625 34.5 0.625 36.5 2.625 C36.76742554 4.54696655 36.76742554 4.54696655 36.79052734 6.91943359 C36.80328705 7.8073056 36.81604675 8.69517761 36.82919312 9.60995483 C36.83141876 10.57140411 36.83364441 11.53285339 36.8359375 12.5234375 C36.8425943 13.50994293 36.8492511 14.49644836 36.85610962 15.5128479 C36.86624764 17.60262178 36.87092629 19.69242811 36.87060547 21.78222656 C36.87497318 24.98036122 36.91126599 28.17711022 36.94921875 31.375 C36.95508772 33.4036411 36.95905658 35.43228878 36.9609375 37.4609375 C36.97530853 38.41833832 36.98967957 39.37573914 37.00448608 40.3621521 C36.95889326 46.98758855 36.95889326 46.98758855 34.62353516 50.23144531 C32.04232709 51.92534456 30.56808797 52.10289319 27.5 52 C26.654375 51.98710938 25.80875 51.97421875 24.9375 51.9609375 C22.198411 51.58343485 20.81182549 51.15426115 18.5 49.625 C16.66894531 46.82763672 16.66894531 46.82763672 14.828125 43.3046875 C14.33720367 42.37669846 14.33720367 42.37669846 13.83636475 41.42996216 C12.79672942 39.45878596 11.77326217 37.47971671 10.75 35.5 C10.04662397 34.15960418 9.34220841 32.81975331 8.63671875 31.48046875 C6.91238581 28.2015427 5.20245121 24.91535087 3.5 21.625 C3.47494385 22.43243652 3.4498877 23.23987305 3.42407227 24.07177734 C3.30834513 27.71468917 3.18551365 31.35732726 3.0625 35 C3.02318359 36.27101562 2.98386719 37.54203125 2.94335938 38.8515625 C2.90146484 40.06328125 2.85957031 41.275 2.81640625 42.5234375 C2.76141968 44.20445557 2.76141968 44.20445557 2.70532227 45.91943359 C2.5 48.625 2.5 48.625 1.5 50.625 C-0.14574566 50.65188151 -1.79161413 50.67134123 -3.4375 50.6875 C-4.35402344 50.69910156 -5.27054687 50.71070313 -6.21484375 50.72265625 C-8.5 50.625 -8.5 50.625 -9.5 49.625 C-9.61860642 48.2709159 -9.67000435 46.9108341 -9.69287109 45.55175781 C-9.70893402 44.68705872 -9.72499695 43.82235962 -9.74154663 42.93145752 C-9.78590344 38.96277514 -9.82708068 34.99426297 -9.85009766 31.02539062 C-9.86664351 28.93217846 -9.89391532 26.83902248 -9.93212891 24.74609375 C-9.98691423 21.73147198 -10.00877633 18.71817767 -10.0234375 15.703125 C-10.04610687 14.76962219 -10.06877625 13.83611938 -10.09213257 12.87432861 C-10.07717411 8.26976584 -10.00870082 6.28231004 -7.10986328 2.53662109 C-4.43045942 0.57406429 -3.26832368 -0.05754091 0 0 Z " fill="#D04343" transform="translate(316.5,48.375)"/>
<path d="M0 0 C1.01642578 -0.02900391 2.03285156 -0.05800781 3.08007812 -0.08789062 C9.36174224 -0.14060956 14.7191677 0.32318542 19.8125 4.3125 C23.85044524 11.3463401 23.9937542 18.72405811 24 26.625 C24.01224609 27.42873047 24.02449219 28.23246094 24.03710938 29.06054688 C24.06975819 42.58803996 24.06975819 42.58803996 20.46191406 46.94262695 C14.44868412 52.13343206 8.57284422 51.52690595 1.0625 51.5625 C-0.01 51.583125 -1.0825 51.60375 -2.1875 51.625 C-8.29938595 51.65510781 -12.84067414 51.38143155 -18.1875 48.3125 C-23.4040681 41.53096147 -22.40447769 33.60226572 -22.4375 25.4375 C-22.458125 24.17035156 -22.47875 22.90320313 -22.5 21.59765625 C-22.50515625 20.37175781 -22.5103125 19.14585938 -22.515625 17.8828125 C-22.5249707 16.76664551 -22.53431641 15.65047852 -22.54394531 14.50048828 C-21.99406351 9.58243584 -20.30329954 6.34461458 -16.6875 3 C-11.46138547 -0.5276273 -6.08640961 0.05681154 0 0 Z M-10.1875 13.3125 C-10.6207202 15.81405453 -10.6207202 15.81405453 -10.515625 18.72265625 C-10.51046875 19.79451172 -10.5053125 20.86636719 -10.5 21.97070312 C-10.479375 23.09412109 -10.45875 24.21753906 -10.4375 25.375 C-10.43234375 26.50228516 -10.4271875 27.62957031 -10.421875 28.79101562 C-10.85693419 33.90998616 -10.85693419 33.90998616 -9.1875 38.3125 C-7.62577255 38.39935603 -6.06020656 38.41952219 -4.49609375 38.41015625 C-3.55185547 38.40693359 -2.60761719 38.40371094 -1.63476562 38.40039062 C-0.14493164 38.38782227 -0.14493164 38.38782227 1.375 38.375 C2.37208984 38.37048828 3.36917969 38.36597656 4.39648438 38.36132812 C6.86854849 38.34950007 9.34049518 38.33301849 11.8125 38.3125 C11.84150455 34.7083502 11.85930018 31.10423038 11.875 27.5 C11.88337891 26.47583984 11.89175781 25.45167969 11.90039062 24.39648438 C11.90361328 23.41357422 11.90683594 22.43066406 11.91015625 21.41796875 C11.91539307 20.51199951 11.92062988 19.60603027 11.92602539 18.67260742 C11.91170981 16.15965961 11.91170981 16.15965961 10.8125 13.3125 C7.68490007 11.74870004 4.31397593 11.85184538 0.875 11.625 C0.14603516 11.56505859 -0.58292969 11.50511719 -1.33398438 11.44335938 C-5.24111482 11.18192902 -6.83999378 11.08082919 -10.1875 13.3125 Z " fill="#CF4445" transform="translate(273.1875,48.6875)"/>
<path d="M0 0 C4.88574677 3.40674302 6.94570314 6.13996822 9.10546875 11.8046875 C9.35621658 12.4468924 9.60696442 13.08909729 9.86531067 13.75076294 C10.65600407 15.78622507 11.42220844 17.82987015 12.1875 19.875 C12.71124673 21.23891365 13.23662469 22.60220207 13.76367188 23.96484375 C14.73719655 26.48321389 15.69904336 29.0048267 16.65307617 31.53076172 C17.60574897 33.9845374 18.59249572 36.38446991 19.64868164 38.79199219 C21.40422571 42.95962526 21.30725925 45.5447409 21 50 C19.12735324 51.87264676 16.50240053 51.23607378 14.0078125 51.328125 C11.31537827 50.88811629 10.73563808 50.11177918 9 48 C7.95375145 45.82159964 6.99133021 43.60230772 6.08203125 41.36328125 C5.81992355 40.72384079 5.55781586 40.08440033 5.2877655 39.42558289 C4.4555595 37.39070579 3.63392174 35.35175099 2.8125 33.3125 C2.24873964 31.92875401 1.68429412 30.54528696 1.11914062 29.16210938 C-0.2618596 25.7779353 -1.63341672 22.39002557 -3 19 C-4.32 22.3 -5.64 25.6 -7 29 C-5.865625 29.28875 -4.73125 29.5775 -3.5625 29.875 C-2.386875 30.24625 -1.21125 30.6175 0 31 C1.60725635 34.21451269 1.05748185 37.43612536 1 41 C-3.62 41.33 -8.24 41.66 -13 42 C-13.66 43.98 -14.32 45.96 -15 48 C-15.66 48.99 -16.32 49.98 -17 51 C-19.3828125 51.29296875 -19.3828125 51.29296875 -22.125 51.1875 C-23.49011719 51.14689453 -23.49011719 51.14689453 -24.8828125 51.10546875 C-25.58148437 51.07066406 -26.28015625 51.03585938 -27 51 C-27.45759182 39.3240281 -21.75443841 28.12271634 -17.5 17.4375 C-17.13269775 16.49769287 -16.76539551 15.55788574 -16.38696289 14.58959961 C-13.14580088 6.62087825 -9.82079259 -1.13316838 0 0 Z " fill="#CB4546" transform="translate(29,49)"/>
<path d="M0 0 C1.24007812 -0.01611328 2.48015625 -0.03222656 3.7578125 -0.04882812 C4.94375 -0.04947266 6.1296875 -0.05011719 7.3515625 -0.05078125 C8.97698975 -0.05525269 8.97698975 -0.05525269 10.63525391 -0.05981445 C13.375 0.3125 13.375 0.3125 15.23583984 1.64379883 C16.96973584 4.18370006 16.62949875 6.32213971 16.375 9.3125 C16.045 9.9725 15.715 10.6325 15.375 11.3125 C12.32736066 12.32837978 10.02781033 12.51054406 6.83203125 12.62890625 C5.86499268 12.66701416 4.8979541 12.70512207 3.90161133 12.74438477 C2.67595459 12.78748779 1.45029785 12.83059082 0.1875 12.875 C-5.6596875 13.0915625 -5.6596875 13.0915625 -11.625 13.3125 C-11.625 21.5625 -11.625 29.8125 -11.625 38.3125 C-3.53294953 38.52237449 -3.53294953 38.52237449 4.55981445 38.70043945 C6.07128052 38.75010864 6.07128052 38.75010864 7.61328125 38.80078125 C8.64493408 38.82696533 9.67658691 38.85314941 10.73950195 38.88012695 C13.375 39.3125 13.375 39.3125 15.21166992 40.62182617 C17.16307651 43.45781581 16.73632388 46.00036446 16.375 49.3125 C11.33015146 52.67573236 5.42381643 51.63982437 -0.5 51.625 C-1.78003906 51.64111328 -3.06007812 51.65722656 -4.37890625 51.67382812 C-5.61253906 51.67447266 -6.84617188 51.67511719 -8.1171875 51.67578125 C-9.80884033 51.68025269 -9.80884033 51.68025269 -11.53466797 51.68481445 C-16.2003354 51.12270805 -18.73383441 49.27792939 -21.875 45.875 C-25.6280521 40.37945943 -24.84389649 34.11814971 -24.875 27.6875 C-24.895625 26.64464844 -24.91625 25.60179687 -24.9375 24.52734375 C-24.972559 17.50677848 -24.85954261 9.44552667 -20.33300781 3.66162109 C-14.4069635 -1.01924238 -7.14642102 -0.01868834 0 0 Z " fill="#CE4343" transform="translate(224.625,48.6875)"/>
<path d="M0 0 C1.19431641 0.00193359 2.38863281 0.00386719 3.61914062 0.00585938 C4.85212891 0.01810547 6.08511719 0.03035156 7.35546875 0.04296875 C8.60779297 0.04361328 9.86011719 0.04425781 11.15039062 0.04492188 C20.4026036 0.0901036 20.4026036 0.0901036 21.54296875 1.23046875 C21.61502386 2.91655841 21.62682943 4.60547534 21.60546875 6.29296875 C21.59644531 7.21207031 21.58742188 8.13117187 21.578125 9.078125 C21.56652344 9.78839844 21.55492187 10.49867187 21.54296875 11.23046875 C15.65956068 12.08734126 9.98241302 12.35534395 4.04296875 12.29296875 C1.23796875 12.27234375 -1.56703125 12.25171875 -4.45703125 12.23046875 C-4.45703125 20.48046875 -4.45703125 28.73046875 -4.45703125 37.23046875 C-1.22464335 38.03856573 1.19002485 38.38417049 4.45703125 38.4765625 C5.38257813 38.50943359 6.308125 38.54230469 7.26171875 38.57617188 C9.20690463 38.63761256 11.15222687 38.69487181 13.09765625 38.74804688 C14.020625 38.78220703 14.94359375 38.81636719 15.89453125 38.8515625 C17.16031006 38.88914673 17.16031006 38.88914673 18.45166016 38.92749023 C20.54296875 39.23046875 20.54296875 39.23046875 22.54296875 41.23046875 C22.84375 43.10546875 22.84375 43.10546875 22.85546875 45.23046875 C22.87222656 45.93171875 22.88898438 46.63296875 22.90625 47.35546875 C22.78636719 47.97421875 22.66648437 48.59296875 22.54296875 49.23046875 C17.73054067 52.43875414 12.51372266 51.59928148 6.85546875 51.60546875 C5.11620117 51.64220703 5.11620117 51.64220703 3.34179688 51.6796875 C-3.72856818 51.70380472 -8.50053663 51.14958754 -14.45703125 47.23046875 C-18.67191555 40.70419629 -18.63932754 34.50503415 -18.64453125 26.98046875 C-18.65677734 26.06394531 -18.66902344 25.14742187 -18.68164062 24.203125 C-18.69909481 16.04620372 -17.98209495 8.67637639 -12.45703125 2.23046875 C-8.20831544 0.4458641 -4.58350814 -0.01722489 0 0 Z " fill="#D54243" transform="translate(487.45703125,48.76953125)"/>
<path d="M0 0 C2.27818415 -0.00218869 4.5558858 -0.0203553 6.83398438 -0.03930664 C8.27669105 -0.04224019 9.71940003 -0.04422524 11.16210938 -0.04516602 C13.13824219 -0.05132935 13.13824219 -0.05132935 15.15429688 -0.05761719 C18.28710938 0.18530273 18.28710938 0.18530273 20.28710938 2.18530273 C20.51757812 4.06030273 20.51757812 4.06030273 20.47460938 6.18530273 C20.46816406 6.88655273 20.46171875 7.58780273 20.45507812 8.31030273 C20.28710938 10.18530273 20.28710938 10.18530273 19.28710938 12.18530273 C10.70710938 12.18530273 2.12710937 12.18530273 -6.71289062 12.18530273 C-6.71289062 13.83530273 -6.71289062 15.48530273 -6.71289062 17.18530273 C-5.96604004 17.20512207 -5.21918945 17.22494141 -4.44970703 17.24536133 C-1.07873458 17.34038485 2.29159867 17.45015533 5.66210938 17.56030273 C6.83773438 17.59124023 8.01335937 17.62217773 9.22460938 17.65405273 C10.34609375 17.69272461 11.46757812 17.73139648 12.62304688 17.77124023 C13.65993652 17.80266113 14.69682617 17.83408203 15.76513672 17.86645508 C18.28710938 18.18530273 18.28710938 18.18530273 20.28710938 20.18530273 C20.58789062 22.24389648 20.58789062 22.24389648 20.59960938 24.62280273 C20.61636719 25.40526367 20.633125 26.18772461 20.65039062 26.99389648 C20.19771249 29.72456783 19.5082818 30.56716355 17.28710938 32.18530273 C8.00097965 33.80669046 -3.82875582 34.97198314 -12.71289062 31.18530273 C-18.14890531 26.32758748 -19.38539782 21.10513968 -19.96679688 14.14624023 C-20.27891332 5.87012032 -20.27891332 5.87012032 -17.81445312 2.88842773 C-12.71001875 -1.24825142 -6.27413756 -0.00067785 0 0 Z " fill="#CB4544" transform="translate(438.712890625,67.814697265625)"/>
<path d="M0 0 C1.12563103 0.00212242 1.12563103 0.00212242 2.27400208 0.00428772 C4.66838585 0.00988065 7.06267578 0.02243181 9.45703125 0.03515625 C11.08137886 0.04017217 12.70572793 0.04473491 14.33007812 0.04882812 C18.30993194 0.05984777 22.28971569 0.07710752 26.26953125 0.09765625 C26.49128058 1.55400996 26.69651823 3.01288581 26.89453125 4.47265625 C27.01054688 5.28476563 27.1265625 6.096875 27.24609375 6.93359375 C27.25769531 8.00480469 27.25769531 8.00480469 27.26953125 9.09765625 C25.26953125 11.09765625 25.26953125 11.09765625 22.65576172 11.32470703 C21.57697754 11.3142334 20.49819336 11.30375977 19.38671875 11.29296875 C18.22011719 11.28652344 17.05351563 11.28007813 15.8515625 11.2734375 C14.62824219 11.25667969 13.40492187 11.23992187 12.14453125 11.22265625 C10.91347656 11.21363281 9.68242188 11.20460938 8.4140625 11.1953125 C5.3656931 11.17168173 2.31770743 11.13873679 -0.73046875 11.09765625 C-0.40046875 12.74765625 -0.07046875 14.39765625 0.26953125 16.09765625 C0.98085205 16.11223877 1.69217285 16.12682129 2.42504883 16.1418457 C5.64459457 16.21626631 8.86309643 16.31294625 12.08203125 16.41015625 C13.20158203 16.43271484 14.32113281 16.45527344 15.47460938 16.47851562 C17.08432617 16.53168945 17.08432617 16.53168945 18.7265625 16.5859375 C19.7163208 16.61212158 20.7060791 16.63830566 21.72583008 16.6652832 C24.622188 17.15760011 25.55833794 17.74761744 27.26953125 20.09765625 C27.5625 22.359375 27.5625 22.359375 27.45703125 24.78515625 C27.41642578 25.99751953 27.41642578 25.99751953 27.375 27.234375 C27.34019531 27.84925781 27.30539063 28.46414062 27.26953125 29.09765625 C21.78524873 31.56894211 16.8874405 31.46515415 10.95703125 31.47265625 C9.94962891 31.49714844 8.94222656 31.52164063 7.90429688 31.546875 C1.54062194 31.5717493 -3.47204291 30.88187484 -8.73046875 27.09765625 C-12.44115597 22.42937233 -12.87710785 17.41624811 -12.91796875 11.59765625 C-12.93214844 10.67984375 -12.94632813 9.76203125 -12.9609375 8.81640625 C-12.70878921 5.84191116 -12.12768855 3.73427035 -10.73046875 1.09765625 C-7.09813773 -0.11312076 -3.77924888 -0.02678539 0 0 Z " fill="#D04343" transform="translate(73.73046875,68.90234375)"/>
<path d="M0 0 C0.88022827 0.00091141 1.76045654 0.00182281 2.6673584 0.00276184 C3.569823 -0.00152328 4.4722876 -0.00580841 5.40209961 -0.01022339 C7.31196248 -0.01597164 9.22184726 -0.01646332 11.13171387 -0.01213074 C14.06194173 -0.0089695 16.99116164 -0.0324279 19.92126465 -0.05778503 C21.77412795 -0.06005776 23.62699398 -0.06076165 25.4798584 -0.05973816 C26.36008667 -0.06894791 27.24031494 -0.07815765 28.1472168 -0.08764648 C30.61462402 -0.06877136 30.61462402 -0.06877136 34.5736084 0.30354309 C37.01130058 3.96008136 36.81305279 5.9935441 36.5736084 10.30354309 C32.77302365 14.10412784 25.93654248 11.94601415 20.5736084 12.30354309 C20.2436084 24.51354309 19.9136084 36.72354309 19.5736084 49.30354309 C15.83619226 51.17225116 14.53533489 51.72056693 10.5736084 51.30354309 C8.5736084 49.30354309 8.5736084 49.30354309 8.34655762 45.68000793 C8.34687483 44.1247962 8.35820541 42.56956258 8.3782959 41.01448059 C8.38112579 40.19605682 8.38395569 39.37763306 8.38687134 38.53440857 C8.39808308 35.91563916 8.42318911 33.29720945 8.4486084 30.67854309 C8.45863693 28.90511052 8.467763 27.13167261 8.47595215 25.35823059 C8.49802562 21.00653683 8.53256195 16.65509759 8.5736084 12.30354309 C7.44668579 12.32094543 7.44668579 12.32094543 6.29699707 12.33869934 C5.3093335 12.34772278 4.32166992 12.35674622 3.30407715 12.36604309 C2.32592041 12.37764465 1.34776367 12.38924622 0.33996582 12.40119934 C-2.86938278 12.28790489 -5.48352201 11.57613535 -8.4263916 10.30354309 C-8.6217041 4.24885559 -8.6217041 4.24885559 -8.4263916 2.30354309 C-5.74010759 -0.38274092 -3.65225689 0.04275542 0 0 Z " fill="#C84444" transform="translate(528.4263916015625,48.69645690917969)"/>
<path d="M0 0 C0.66 0.33 1.32 0.66 2 1 C2 8.59 2 16.18 2 24 C2.99 24 3.98 24 5 24 C5.33 25.98 5.66 27.96 6 30 C12.6 30.66 19.2 31.32 26 32 C26 32.66 26 33.32 26 34 C27.98 33.505 27.98 33.505 30 33 C30.66 33.99 31.32 34.98 32 36 C31.67 37.65 31.34 39.3 31 41 C22.42 41 13.84 41 5 41 C3 37 3 37 3 35 C1.2984375 34.0409375 1.2984375 34.0409375 -0.4375 33.0625 C-3.875 31.125 -3.875 31.125 -5 30 C-5.33747006 26.1131138 -5.32514983 22.21214291 -5.375 18.3125 C-5.41238281 17.22259766 -5.44976562 16.13269531 -5.48828125 15.00976562 C-5.58736256 5.9658437 -5.58736256 5.9658437 -2.4765625 2.23046875 C-1.25066406 1.12638672 -1.25066406 1.12638672 0 0 Z " fill="#D34242" transform="translate(476,59)"/>
<path d="M0 0 C0.72397476 0.00091141 1.44794952 0.00182281 2.19386292 0.00276184 C2.93858353 -0.00152328 3.68330414 -0.00580841 4.45059204 -0.01022339 C6.02670779 -0.01596972 7.60285007 -0.01646471 9.17897034 -0.01213074 C11.59129608 -0.00897356 14.00239229 -0.03241447 16.41456604 -0.05778503 C17.94516345 -0.06005828 19.47576416 -0.0607614 21.00636292 -0.05973816 C21.72831345 -0.06894791 22.45026398 -0.07815765 23.1940918 -0.08764648 C26.07045344 -0.06106544 28.18157553 0.00511168 30.66481018 1.53327942 C32.01374909 3.91718292 31.78144991 5.30988657 31.35401917 7.99104309 C31.23413635 8.79928528 31.11425354 9.60752747 30.99073792 10.44026184 C30.88374573 11.05514465 30.77675354 11.67002747 30.66651917 12.30354309 C25.59451216 12.35296674 20.52264523 12.38927377 15.45045471 12.41340637 C13.72484394 12.42346635 11.99925022 12.43711585 10.2736969 12.454422 C7.79391777 12.47867063 5.31436394 12.4900261 2.83448792 12.49885559 C2.06251572 12.50917816 1.29054352 12.51950073 0.49517822 12.53013611 C-3.32629559 12.53093731 -5.07484191 12.47596904 -8.33348083 10.30354309 C-7.3464652 0.10438155 -7.3464652 0.10438155 0 0 Z " fill="#C74342" transform="translate(69.33348083496094,48.69645690917969)"/>
<path d="M0 0 C1.15628906 0.00607269 1.15628906 0.00607269 2.3359375 0.01226807 C3.12742187 0.01035461 3.91890625 0.00844116 4.734375 0.00646973 C6.4088574 0.00510789 8.08335035 0.00880425 9.7578125 0.01715088 C12.32576131 0.02785067 14.89301053 0.01725582 17.4609375 0.00445557 C19.08593905 0.00577716 20.71094016 0.00833956 22.3359375 0.01226807 C23.10679687 0.0082196 23.87765625 0.00417114 24.671875 0 C30.10601618 0.04797174 30.10601618 0.04797174 32.3359375 2.27789307 C32.66345984 4.99244262 32.46678 7.53020066 32.3359375 10.27789307 C30.49317241 12.12065815 27.90629991 11.40663718 25.45458984 11.4168396 C24.63168457 11.41481537 23.8087793 11.41279114 22.9609375 11.41070557 C22.12127441 11.41166229 21.28161133 11.41261902 20.41650391 11.41360474 C18.63769455 11.41428654 16.85888273 11.41243223 15.08007812 11.40826416 C12.34759974 11.40291589 9.61528574 11.40820912 6.8828125 11.41461182 C5.1588538 11.41395103 3.43489521 11.41266987 1.7109375 11.41070557 C0.88803223 11.4127298 0.06512695 11.41475403 -0.78271484 11.4168396 C-6.54911196 11.39284361 -6.54911196 11.39284361 -7.6640625 10.27789307 C-7.93721065 4.54178196 -7.93721065 4.54178196 -7.6640625 2.27789307 C-5.11840838 -0.26776106 -3.47230536 0.03065297 0 0 Z " fill="#D24243" transform="translate(426.6640625,48.72210693359375)"/>
<path d="M0 0 C4.12498538 -0.02892385 8.24994485 -0.04677267 12.375 -0.0625 C14.1384375 -0.07506836 14.1384375 -0.07506836 15.9375 -0.08789062 C17.61972656 -0.09272461 17.61972656 -0.09272461 19.3359375 -0.09765625 C20.89127197 -0.10551147 20.89127197 -0.10551147 22.47802734 -0.11352539 C25 0 25 0 27 1 C27.02687279 2.81242052 27.04633715 4.62495233 27.0625 6.4375 C27.07410156 7.44683594 27.08570313 8.45617187 27.09765625 9.49609375 C27 12 27 12 26 13 C20.87449582 13.75622193 15.80438757 14.11784066 10.625 14.25 C9.12839844 14.28867188 9.12839844 14.28867188 7.6015625 14.328125 C5 14 5 14 3.1875 12.6171875 C1.82758367 10.76519618 1.44702081 9.23510403 1 7 C0.67 6.67 0.34 6.34 0 6 C-0.04080783 4.00041636 -0.04254356 1.99954746 0 0 Z " fill="#D44040" transform="translate(430,87)"/>
<path d="M0 0 C1.20076172 -0.00128906 2.40152344 -0.00257812 3.63867188 -0.00390625 C4.88841797 -0.00003906 6.13816406 0.00382812 7.42578125 0.0078125 C8.68712891 0.00394531 9.94847656 0.00007813 11.24804688 -0.00390625 C12.44494141 -0.00261719 13.64183594 -0.00132813 14.875 0 C16.52568481 0.00169189 16.52568481 0.00169189 18.2097168 0.00341797 C20.73828125 0.1328125 20.73828125 0.1328125 21.73828125 1.1328125 C21.81033636 2.81890216 21.82214193 4.50781909 21.80078125 6.1953125 C21.79175781 7.11441406 21.78273438 8.03351562 21.7734375 8.98046875 C21.76183594 9.69074219 21.75023437 10.40101562 21.73828125 11.1328125 C15.85487318 11.98968501 10.17772552 12.2576877 4.23828125 12.1953125 C1.43328125 12.1746875 -1.37171875 12.1540625 -4.26171875 12.1328125 C-4.26171875 20.3828125 -4.26171875 28.6328125 -4.26171875 37.1328125 C-1.02933085 37.94090948 1.38533735 38.28651424 4.65234375 38.37890625 C5.57789063 38.41177734 6.5034375 38.44464844 7.45703125 38.47851562 C9.40221713 38.53995631 11.34753937 38.59721556 13.29296875 38.65039062 C14.2159375 38.68455078 15.13890625 38.71871094 16.08984375 38.75390625 C17.35562256 38.79149048 17.35562256 38.79149048 18.64697266 38.82983398 C20.73828125 39.1328125 20.73828125 39.1328125 22.73828125 41.1328125 C23.00820031 43.82120635 22.82565482 46.42423186 22.73828125 49.1328125 C21.74828125 49.6278125 21.74828125 49.6278125 20.73828125 50.1328125 C20.07828125 47.8228125 19.41828125 45.5128125 18.73828125 43.1328125 C16.75828125 43.6278125 16.75828125 43.6278125 14.73828125 44.1328125 C14.73828125 43.4728125 14.73828125 42.8128125 14.73828125 42.1328125 C13.83734741 42.09522827 13.83734741 42.09522827 12.91821289 42.05688477 C10.21216688 41.9412597 7.50649842 41.81838314 4.80078125 41.6953125 C3.38249023 41.63633789 3.38249023 41.63633789 1.93554688 41.57617188 C0.58686523 41.51333008 0.58686523 41.51333008 -0.7890625 41.44921875 C-1.62171631 41.41256104 -2.45437012 41.37590332 -3.31225586 41.33813477 C-5.26171875 41.1328125 -5.26171875 41.1328125 -6.26171875 40.1328125 C-6.3494748 37.98722423 -6.36867094 35.83876829 -6.359375 33.69140625 C-6.35615234 32.38623047 -6.35292969 31.08105469 -6.34960938 29.73632812 C-6.34125276 28.3476556 -6.3327878 26.95898373 -6.32421875 25.5703125 C-6.31920541 24.17773594 -6.31464222 22.78515769 -6.31054688 21.39257812 C-6.29871309 17.9726138 -6.28222755 14.55273406 -6.26171875 11.1328125 C-3.68960553 9.84675589 -1.69264909 9.92237309 1.18359375 9.81640625 C2.25996094 9.77451172 3.33632813 9.73261719 4.4453125 9.68945312 C5.57324219 9.65013672 6.70117188 9.61082031 7.86328125 9.5703125 C8.99894531 9.52712891 10.13460938 9.48394531 11.3046875 9.43945312 C14.11575893 9.3331521 16.9269207 9.23111845 19.73828125 9.1328125 C19.73828125 6.8228125 19.73828125 4.5128125 19.73828125 2.1328125 C10.49828125 2.1328125 1.25828125 2.1328125 -8.26171875 2.1328125 C-8.26171875 2.7928125 -8.26171875 3.4528125 -8.26171875 4.1328125 C-8.92171875 4.1328125 -9.58171875 4.1328125 -10.26171875 4.1328125 C-10.59171875 5.1228125 -10.92171875 6.1128125 -11.26171875 7.1328125 C-12.25171875 7.1328125 -13.24171875 7.1328125 -14.26171875 7.1328125 C-14.26171875 8.1228125 -14.26171875 9.1128125 -14.26171875 10.1328125 C-14.92171875 10.1328125 -15.58171875 10.1328125 -16.26171875 10.1328125 C-14.95258648 6.20541569 -13.4718168 3.77642266 -10.26171875 1.1328125 C-6.85925263 -0.04157017 -3.57598884 0.00365403 0 0 Z " fill="#AB4242" transform="translate(487.26171875,48.8671875)"/>
<path d="M0 0 C1.24007812 -0.01611328 2.48015625 -0.03222656 3.7578125 -0.04882812 C4.94375 -0.04947266 6.1296875 -0.05011719 7.3515625 -0.05078125 C8.97698975 -0.05525269 8.97698975 -0.05525269 10.63525391 -0.05981445 C13.375 0.3125 13.375 0.3125 15.23583984 1.64379883 C16.96973584 4.18370006 16.62949875 6.32213971 16.375 9.3125 C16.045 9.9725 15.715 10.6325 15.375 11.3125 C12.43368109 12.29293964 10.54998335 12.42871202 7.48828125 12.41015625 C6.55048828 12.40693359 5.61269531 12.40371094 4.64648438 12.40039062 C3.67001953 12.39201172 2.69355469 12.38363281 1.6875 12.375 C0.20540039 12.36823242 0.20540039 12.36823242 -1.30664062 12.36132812 C-3.74615474 12.34954303 -6.18554689 12.33309011 -8.625 12.3125 C-8.625 11.9825 -8.625 11.6525 -8.625 11.3125 C-1.035 10.9825 6.555 10.6525 14.375 10.3125 C14.375 7.6725 14.375 5.0325 14.375 2.3125 C5.795 2.3125 -2.785 2.3125 -11.625 2.3125 C-11.625 2.9725 -11.625 3.6325 -11.625 4.3125 C-12.615 4.6425 -13.605 4.9725 -14.625 5.3125 C-19.11271492 9.3728135 -20.68929093 12.38634255 -21.625 18.3125 C-21.295 18.6425 -20.965 18.9725 -20.625 19.3125 C-20.3608767 21.79819376 -20.15651075 24.25733615 -20 26.75 C-19.9484375 27.44416016 -19.896875 28.13832031 -19.84375 28.85351562 C-19.50075519 34.06401037 -19.50075519 34.06401037 -20.625 36.3125 C-20.46 37.075625 -20.295 37.83875 -20.125 38.625 C-19.58435156 41.53098539 -19.89533934 43.47493077 -20.625 46.3125 C-23.18450475 44.08684369 -24.00644898 42.62283951 -24.625 39.3125 C-24.87468561 35.44085974 -24.85623877 31.5663834 -24.875 27.6875 C-24.895625 26.64464844 -24.91625 25.60179687 -24.9375 24.52734375 C-24.972559 17.50677848 -24.85954261 9.44552667 -20.33300781 3.66162109 C-14.4069635 -1.01924238 -7.14642102 -0.01868834 0 0 Z " fill="#BB4849" transform="translate(224.625,48.6875)"/>
<path d="M0 0 C2.27818415 -0.00218869 4.5558858 -0.0203553 6.83398438 -0.03930664 C8.27669105 -0.04224019 9.71940003 -0.04422524 11.16210938 -0.04516602 C13.13824219 -0.05132935 13.13824219 -0.05132935 15.15429688 -0.05761719 C18.28710938 0.18530273 18.28710938 0.18530273 20.28710938 2.18530273 C20.55702844 4.87369658 20.37448294 7.4767221 20.28710938 10.18530273 C19.62710938 10.51530273 18.96710938 10.84530273 18.28710938 11.18530273 C17.79210937 7.72030273 17.79210937 7.72030273 17.28710938 4.18530273 C12.9271687 4.16057573 8.56726523 4.14242992 4.20727539 4.13037109 C2.72419524 4.1253437 1.24112004 4.11852088 -0.24194336 4.10986328 C-2.37419864 4.09772791 -4.50638835 4.09205848 -6.63867188 4.08764648 C-7.92169189 4.08240967 -9.20471191 4.07717285 -10.52661133 4.07177734 C-13.73548802 4.03603098 -13.73548802 4.03603098 -16.71289062 5.18530273 C-17.13680795 13.94626082 -15.19036272 21.16036713 -11.71289062 29.18530273 C-11.05289062 29.18530273 -10.39289063 29.18530273 -9.71289062 29.18530273 C-9.05289062 27.86530273 -8.39289063 26.54530273 -7.71289062 25.18530273 C-5.35335968 27.54483368 -5.22147649 28.96425891 -4.71289062 32.18530273 C-11.86286914 31.94293058 -11.86286914 31.94293058 -15.58789062 28.62280273 C-20.15756901 22.11447292 -21.01095255 12.88567006 -19.71289062 5.18530273 C-14.31289474 -1.34802562 -7.82051458 -0.00084491 0 0 Z " fill="#B5474A" transform="translate(438.712890625,67.814697265625)"/>
<path d="M0 0 C1.45792884 -0.05399736 2.91642712 -0.09279177 4.375 -0.125 C5.18710937 -0.14820313 5.99921875 -0.17140625 6.8359375 -0.1953125 C9 0 9 0 11 2 C11.26742554 3.92196655 11.26742554 3.92196655 11.29052734 6.29443359 C11.3096669 7.62624161 11.3096669 7.62624161 11.32919312 8.98495483 C11.33141876 9.94640411 11.33364441 10.90785339 11.3359375 11.8984375 C11.3425943 12.88494293 11.3492511 13.87144836 11.35610962 14.8878479 C11.36624764 16.97762178 11.37092629 19.06742811 11.37060547 21.15722656 C11.37497318 24.35536122 11.41126599 27.55211022 11.44921875 30.75 C11.45508772 32.7786411 11.45905658 34.80728878 11.4609375 36.8359375 C11.47530853 37.79333832 11.48967957 38.75073914 11.50448608 39.7371521 C11.45889326 46.36258855 11.45889326 46.36258855 9.12353516 49.60644531 C6.54232709 51.30034456 5.06808797 51.47789319 2 51.375 C1.154375 51.36210938 0.30875 51.34921875 -0.5625 51.3359375 C-3.09589516 50.98678368 -4.79971107 50.27331535 -7 49 C-6.67 48.01 -6.34 47.02 -6 46 C-1.05 46.33 3.9 46.66 9 47 C9 32.15 9 17.3 9 2 C6.69 2.33 4.38 2.66 2 3 C1.98018066 3.65597168 1.96036133 4.31194336 1.93994141 4.98779297 C1.84487493 7.95061069 1.73512248 10.91270532 1.625 13.875 C1.57859375 15.42380859 1.57859375 15.42380859 1.53125 17.00390625 C1.47324219 18.48310547 1.47324219 18.48310547 1.4140625 19.9921875 C1.3826416 20.90339355 1.3512207 21.81459961 1.31884766 22.75341797 C1 25 1 25 -1 27 C-1.02892385 22.87501462 -1.04677267 18.75005515 -1.0625 14.625 C-1.07087891 13.449375 -1.07925781 12.27375 -1.08789062 11.0625 C-1.09111328 9.94101562 -1.09433594 8.81953125 -1.09765625 7.6640625 C-1.10289307 6.62717285 -1.10812988 5.5902832 -1.11352539 4.52197266 C-1 2 -1 2 0 0 Z " fill="#B54949" transform="translate(342,49)"/>
<path d="M0 0 C1.45792884 -0.05399736 2.91642712 -0.09279177 4.375 -0.125 C5.18710937 -0.14820313 5.99921875 -0.17140625 6.8359375 -0.1953125 C9 0 9 0 11 2 C11.26742554 3.92196655 11.26742554 3.92196655 11.29052734 6.29443359 C11.3096669 7.62624161 11.3096669 7.62624161 11.32919312 8.98495483 C11.33141876 9.94640411 11.33364441 10.90785339 11.3359375 11.8984375 C11.3425943 12.88494293 11.3492511 13.87144836 11.35610962 14.8878479 C11.36624764 16.97762178 11.37092629 19.06742811 11.37060547 21.15722656 C11.37497318 24.35536122 11.41126599 27.55211022 11.44921875 30.75 C11.45508772 32.7786411 11.45905658 34.80728878 11.4609375 36.8359375 C11.47530853 37.79333832 11.48967957 38.75073914 11.50448608 39.7371521 C11.45887173 46.36571585 11.45887173 46.36571585 9.11914062 49.59985352 C5.27286553 52.14114242 1.41841011 51.80271274 -3 51 C-7.71390884 48.69694682 -10.02088329 44.72788992 -12 40 C-11.34 40 -10.68 40 -10 40 C-10 40.66 -10 41.32 -10 42 C-9.01 42 -8.02 42 -7 42 C-6.67 43.32 -6.34 44.64 -6 46 C-5.00419922 46.09087891 -5.00419922 46.09087891 -3.98828125 46.18359375 C-3.10527344 46.26738281 -2.22226562 46.35117188 -1.3125 46.4375 C-0.44238281 46.51871094 0.42773438 46.59992188 1.32421875 46.68359375 C3.90220641 46.98843609 6.45446295 47.49089259 9 48 C9 32.82 9 17.64 9 2 C6.69 2.33 4.38 2.66 2 3 C1.34 7.95 0.68 12.9 0 18 C-0.33 18 -0.66 18 -1 18 C-1.02690844 15.37493198 -1.04679404 12.75013827 -1.0625 10.125 C-1.07087891 9.37863281 -1.07925781 8.63226563 -1.08789062 7.86328125 C-1.11328125 2.2265625 -1.11328125 2.2265625 0 0 Z " fill="#B14548" transform="translate(398,49)"/>
<path d="M0 0 C1.01642578 -0.02449219 2.03285156 -0.04898438 3.08007812 -0.07421875 C9.34850731 -0.0984993 14.72982495 0.40136107 19.8125 4.375 C23.85044524 11.4088401 23.9937542 18.78655811 24 26.6875 C24.01224609 27.49123047 24.02449219 28.29496094 24.03710938 29.12304688 C24.0502891 34.58384514 23.84987583 40.24273691 21.8125 45.375 C20.8225 46.035 19.8325 46.695 18.8125 47.375 C19.13992188 46.48683594 19.46734375 45.59867188 19.8046875 44.68359375 C21.41579915 39.04470299 21.02340552 33.24933887 20.9375 27.4375 C20.92847656 26.27669922 20.91945313 25.11589844 20.91015625 23.91992188 C20.88671162 21.07139892 20.85389522 18.22330922 20.8125 15.375 C19.4925 15.045 18.1725 14.715 16.8125 14.375 C16.8125 11.075 16.8125 7.775 16.8125 4.375 C13.5103772 3.2742924 10.87166721 3.16872928 7.39453125 3.05859375 C6.14091797 3.01669922 4.88730469 2.97480469 3.59570312 2.93164062 C1.63020508 2.87266602 1.63020508 2.87266602 -0.375 2.8125 C-1.71029978 2.76929008 -3.04558652 2.725675 -4.38085938 2.68164062 C-7.64963297 2.57543498 -10.91848333 2.47339003 -14.1875 2.375 C-9.67583079 -0.63277947 -5.30925452 0.00660766 0 0 Z " fill="#B24749" transform="translate(273.1875,48.625)"/>
<path d="M0 0 C0.74958984 0.00451172 1.49917969 0.00902344 2.27148438 0.01367188 C4.11852383 0.02543646 5.96552213 0.04337135 7.8125 0.0625 C8.1425 0.7225 8.4725 1.3825 8.8125 2.0625 C7.22308594 2.04509766 7.22308594 2.04509766 5.6015625 2.02734375 C4.21354342 2.01796524 2.82552245 2.00886511 1.4375 2 C0.38949219 1.98743164 0.38949219 1.98743164 -0.6796875 1.97460938 C-4.56045376 1.8789558 -4.56045376 1.8789558 -8.1875 3.0625 C-8.1875 10.9825 -8.1875 18.9025 -8.1875 27.0625 C-1.2575 27.3925 5.6725 27.7225 12.8125 28.0625 C12.3175 15.6875 12.3175 15.6875 11.8125 3.0625 C11.1525 2.7325 10.4925 2.4025 9.8125 2.0625 C11.1325 2.3925 12.4525 2.7225 13.8125 3.0625 C14.86316804 7.37444166 14.99590146 11.58586779 15 16 C15.01224609 16.69029297 15.02449219 17.38058594 15.03710938 18.09179688 C15.04955475 22.46841936 14.47536698 26.01351163 12.8125 30.0625 C10.66962161 32.20537839 5.96452892 31.2477037 3 31.25 C2.17951172 31.26224609 1.35902344 31.27449219 0.51367188 31.28710938 C-0.67838867 31.29000977 -0.67838867 31.29000977 -1.89453125 31.29296875 C-2.6213208 31.29707764 -3.34811035 31.30118652 -4.09692383 31.30541992 C-6.1875 31.0625 -6.1875 31.0625 -10.1875 29.0625 C-10.5175 19.8225 -10.8475 10.5825 -11.1875 1.0625 C-7.42449626 -0.19183458 -3.91539091 -0.04445422 0 0 Z " fill="#A44748" transform="translate(272.1875,58.9375)"/>
<path d="M0 0 C0.60457031 0.19980469 1.20914063 0.39960938 1.83203125 0.60546875 C2.56046139 10.15599722 0.38916835 18.50708361 -2.16796875 27.60546875 C-2.49796875 27.60546875 -2.82796875 27.60546875 -3.16796875 27.60546875 C-3.39101316 25.85728284 -3.59583325 24.10676552 -3.79296875 22.35546875 C-3.96699219 20.89367188 -3.96699219 20.89367188 -4.14453125 19.40234375 C-4.16909412 16.47117482 -3.69924045 15.06017911 -2.16796875 12.60546875 C-1.50796875 12.60546875 -0.84796875 12.60546875 -0.16796875 12.60546875 C-0.66296875 9.14046875 -0.66296875 9.14046875 -1.16796875 5.60546875 C-3.62427876 6.10094418 -3.62427876 6.10094418 -6.16796875 7.60546875 C-7.51573853 9.88509498 -8.28161091 12.08634647 -9.16796875 14.60546875 C-9.49796875 13.94546875 -9.82796875 13.28546875 -10.16796875 12.60546875 C-14.42539012 13.07851557 -16.42501973 15.49185095 -19.16796875 18.60546875 C-19.49796875 19.59546875 -19.82796875 20.58546875 -20.16796875 21.60546875 C-22.23046875 23.29296875 -22.23046875 23.29296875 -24.16796875 24.60546875 C-24.82796875 24.27546875 -25.48796875 23.94546875 -26.16796875 23.60546875 C-26.50828125 24.53359375 -26.50828125 24.53359375 -26.85546875 25.48046875 C-28.5472671 28.21957084 -30.16041036 28.65571347 -33.16796875 29.60546875 C-29.01716399 24.47157866 -24.52944655 20.1168079 -19.5703125 15.76171875 C-17.52338423 13.92447581 -15.61865441 12.03945433 -13.73046875 10.04296875 C-11.16796875 7.60546875 -11.16796875 7.60546875 -8.16796875 7.60546875 C-8.07515625 6.73921875 -8.07515625 6.73921875 -7.98046875 5.85546875 C-6.68408643 2.26548695 -4.01044933 -0.72982952 0 0 Z " fill="#B4484B" transform="translate(166.16796875,30.39453125)"/>
<path d="M0 0 C2 0 2 0 3.625 1.375 C5 3 5 3 5 5 C6.98 4.34 8.96 3.68 11 3 C11.66 4.98 12.32 6.96 13 9 C13.66 9 14.32 9 15 9 C16.62651522 12.25303044 16.11453156 15.39225602 16 19 C15 20 15 20 13.15234375 20.09765625 C11.1015625 20.06510417 9.05078125 20.03255208 7 20 C4.9122807 16.56140351 4.9122807 16.56140351 5.3125 14 C5.539375 13.34 5.76625 12.68 6 12 C6.55751928 9.89381604 7 8.18115464 7 6 C5.02 6 3.04 6 1 6 C0.67 4.02 0.34 2.04 0 0 Z " fill="#CC4243" transform="translate(34,80)"/>
<path d="M0 0 C3.50343434 0.80458619 5.10987643 2.65215722 7.16015625 5.49609375 C7.16015625 6.48609375 7.16015625 7.47609375 7.16015625 8.49609375 C6.45890625 7.87734375 5.75765625 7.25859375 5.03515625 6.62109375 C0.77813022 3.47459625 -2.56581353 2.49609375 -7.83984375 2.49609375 C-9.13655341 12.35925545 -8.95108677 22.19407244 -8.90234375 32.12109375 C-8.89731925 33.90624875 -8.89275803 35.69140511 -8.88867188 37.4765625 C-8.87774026 41.81644045 -8.86052785 46.15625177 -8.83984375 50.49609375 C-9.82984375 50.16609375 -10.81984375 49.83609375 -11.83984375 49.49609375 C-11.96357277 43.32144462 -12.05424519 37.14751919 -12.11450195 30.97192383 C-12.13962426 28.87186105 -12.17372833 26.77188552 -12.21704102 24.67211914 C-12.27779246 21.65098535 -12.30607638 18.63100879 -12.328125 15.609375 C-12.35393143 14.67273514 -12.37973785 13.73609528 -12.40632629 12.77107239 C-12.40830604 8.15512428 -12.35498974 6.16281833 -9.4519043 2.40551758 C-6.01482395 -0.10699812 -4.12358105 -0.22717558 0 0 Z " fill="#B7484A" transform="translate(318.83984375,48.50390625)"/>
<path d="M0 0 C1.12563103 0.00212242 1.12563103 0.00212242 2.27400208 0.00428772 C4.66838585 0.00988065 7.06267578 0.02243181 9.45703125 0.03515625 C11.08137886 0.04017217 12.70572793 0.04473491 14.33007812 0.04882812 C18.30993194 0.05984777 22.28971569 0.07710752 26.26953125 0.09765625 C25.93953125 0.75765625 25.60953125 1.41765625 25.26953125 2.09765625 C14.04953125 2.09765625 2.82953125 2.09765625 -8.73046875 2.09765625 C-9.73718101 6.12450528 -9.89759875 9.4584718 -9.91796875 13.59765625 C-9.93214844 14.90734375 -9.94632813 16.21703125 -9.9609375 17.56640625 C-9.75150246 20.77537701 -9.61859256 22.53833893 -7.73046875 25.09765625 C-6.74046875 25.42765625 -5.75046875 25.75765625 -4.73046875 26.09765625 C-4.73046875 26.75765625 -4.73046875 27.41765625 -4.73046875 28.09765625 C-1.26546875 27.60265625 -1.26546875 27.60265625 2.26953125 27.09765625 C2.26953125 27.75765625 2.26953125 28.41765625 2.26953125 29.09765625 C8.86953125 29.42765625 15.46953125 29.75765625 22.26953125 30.09765625 C22.26953125 30.42765625 22.26953125 30.75765625 22.26953125 31.09765625 C18.60313877 31.21493751 14.93723605 31.28526516 11.26953125 31.34765625 C10.23957031 31.38117188 9.20960937 31.4146875 8.1484375 31.44921875 C1.34895091 31.53583641 -2.9542838 30.75880708 -8.73046875 27.09765625 C-12.44115597 22.42937233 -12.87710785 17.41624811 -12.91796875 11.59765625 C-12.93214844 10.67984375 -12.94632813 9.76203125 -12.9609375 8.81640625 C-12.70878921 5.84191116 -12.12768855 3.73427035 -10.73046875 1.09765625 C-7.09813773 -0.11312076 -3.77924888 -0.02678539 0 0 Z " fill="#B44949" transform="translate(73.73046875,68.90234375)"/>
<path d="M0 0 C2.19707524 -0.00974637 4.39323048 -0.04080118 6.59008789 -0.07226562 C7.98266046 -0.0787921 9.37523971 -0.08404397 10.76782227 -0.08789062 C12.03698486 -0.09723633 13.30614746 -0.10658203 14.61376953 -0.11621094 C15.61206787 0.00141602 16.61036621 0.11904297 17.63891602 0.24023438 C19.78807386 3.46397115 20.02178404 4.50727111 19.63891602 8.24023438 C17.63891602 10.24023438 17.63891602 10.24023438 15.11694336 10.46728516 C14.08005371 10.45681152 13.04316406 10.44633789 11.97485352 10.43554688 C10.85336914 10.42910156 9.73188477 10.42265625 8.57641602 10.41601562 C7.40079102 10.39925781 6.22516602 10.3825 5.01391602 10.36523438 C3.83055664 10.35621094 2.64719727 10.3471875 1.42797852 10.33789062 C-1.50190921 10.3142625 -4.43139739 10.28131952 -7.36108398 10.24023438 C-7.36108398 9.91023438 -7.36108398 9.58023438 -7.36108398 9.24023438 C-0.10108398 8.91023438 7.15891602 8.58023438 14.63891602 8.24023438 C14.63891602 6.26023437 14.63891602 4.28023438 14.63891602 2.24023438 C-0.70608398 2.73523438 -0.70608398 2.73523438 -16.36108398 3.24023438 C-16.36108398 2.58023438 -16.36108398 1.92023438 -16.36108398 1.24023438 C-11.12107692 -0.50643465 -5.48683895 0.01477771 0 0 Z " fill="#BA4143" transform="translate(81.361083984375,69.759765625)"/>
<path d="M0 0 C1.15628906 0.00607269 1.15628906 0.00607269 2.3359375 0.01226807 C3.12742187 0.01035461 3.91890625 0.00844116 4.734375 0.00646973 C6.4088574 0.00510789 8.08335035 0.00880425 9.7578125 0.01715088 C12.32576131 0.02785067 14.89301053 0.01725582 17.4609375 0.00445557 C19.08593905 0.00577716 20.71094016 0.00833956 22.3359375 0.01226807 C23.10679687 0.0082196 23.87765625 0.00417114 24.671875 0 C30.10601618 0.04797174 30.10601618 0.04797174 32.3359375 2.27789307 C32.66345984 4.99244262 32.46678 7.53020066 32.3359375 10.27789307 C31.3359375 11.27789307 31.3359375 11.27789307 28.00952148 11.39141846 C26.53368194 11.39125936 25.05783681 11.38556621 23.58203125 11.37554932 C22.80658463 11.37413437 22.031138 11.37271942 21.23219299 11.3712616 C18.74590256 11.36564652 16.2597009 11.35309153 13.7734375 11.34039307 C12.09179817 11.33538001 10.41015744 11.33081676 8.72851562 11.32672119 C4.59762184 11.3156722 0.46679474 11.29839751 -3.6640625 11.27789307 C-3.6640625 10.94789307 -3.6640625 10.61789307 -3.6640625 10.27789307 C7.5559375 10.27789307 18.7759375 10.27789307 30.3359375 10.27789307 C29.8409375 6.31789307 29.8409375 6.31789307 29.3359375 2.27789307 C18.1159375 1.94789307 6.8959375 1.61789307 -4.6640625 1.27789307 C-4.6640625 4.57789307 -4.6640625 7.87789307 -4.6640625 11.27789307 C-5.6540625 10.94789307 -6.6440625 10.61789307 -7.6640625 10.27789307 C-7.859375 4.22320557 -7.859375 4.22320557 -7.6640625 2.27789307 C-5.11840838 -0.26776106 -3.47230536 0.03065297 0 0 Z " fill="#A14040" transform="translate(426.6640625,48.72210693359375)"/>
<path d="M0 0 C1.9597168 0.78710938 1.9597168 0.78710938 4 2 C4.49743608 4.62887433 4.74088451 6.85763552 4.8125 9.5 C4.85052734 10.18964844 4.88855469 10.87929687 4.92773438 11.58984375 C5.16083287 16.67833426 5.16083287 16.67833426 4 19 C4.165 19.763125 4.33 20.52625 4.5 21.3125 C5.04064844 24.21848539 4.72966066 26.16243077 4 29 C1.4429721 26.77649748 0.61023404 25.31051056 0 22 C-0.07952806 20.26714352 -0.10774143 18.53152614 -0.09765625 16.796875 C-0.09443359 15.8171875 -0.09121094 14.8375 -0.08789062 13.828125 C-0.07951172 12.81234375 -0.07113281 11.7965625 -0.0625 10.75 C-0.05798828 9.71875 -0.05347656 8.6875 -0.04882812 7.625 C-0.03706088 5.08327427 -0.02062011 2.54166681 0 0 Z " fill="#C95253" transform="translate(200,66)"/>
<path d="M0 0 C0.33 0 0.66 0 1 0 C0.98259766 1.32390747 0.98259766 1.32390747 0.96484375 2.67456055 C0.94060328 5.96542135 0.95221946 9.2521746 0.98779297 12.54272461 C0.99587999 13.96361349 0.98987413 15.38465788 0.96923828 16.80541992 C0.50494767 24.98431563 0.50494767 24.98431563 3.83007812 31.97387695 C5.97616501 33.32409634 5.97616501 33.32409634 8.23632812 34.16992188 C9.1093457 34.58081055 9.1093457 34.58081055 10 35 C10.5 37.8125 10.5 37.8125 10 40 C4.57337884 38.55290102 4.57337884 38.55290102 2.25 36.3125 C-1.23735617 29.86089109 -1.28333973 23.60530276 -1.1875 16.4375 C-1.18685547 15.51775391 -1.18621094 14.59800781 -1.18554688 13.65039062 C-1.15541677 8.99361599 -0.95238972 4.57908975 0 0 Z " fill="#BA4C4C" transform="translate(470,59)"/>
<path d="M0 0 C1.45792884 -0.05399736 2.91642712 -0.09279177 4.375 -0.125 C5.18710937 -0.14820313 5.99921875 -0.17140625 6.8359375 -0.1953125 C9 0 9 0 11 2 C11.24050903 3.91091919 11.24050903 3.91091919 11.22705078 6.26611328 C11.22682419 7.58725632 11.22682419 7.58725632 11.22659302 8.93508911 C11.21627045 9.88721283 11.20594788 10.83933655 11.1953125 11.8203125 C11.1924826 12.79410858 11.18965271 13.76790466 11.18673706 14.77120972 C11.17551913 17.88926349 11.1504117 21.00703268 11.125 24.125 C11.11497228 26.23567294 11.10584607 28.34635038 11.09765625 30.45703125 C11.07557458 35.63811835 11.04208129 40.81903885 11 46 C10.67 46 10.34 46 10 46 C9.67 31.81 9.34 17.62 9 3 C6.69 3 4.38 3 2 3 C1.34 7.95 0.68 12.9 0 18 C-0.33 18 -0.66 18 -1 18 C-1.02690844 15.37493198 -1.04679404 12.75013827 -1.0625 10.125 C-1.07087891 9.37863281 -1.07925781 8.63226563 -1.08789062 7.86328125 C-1.11328125 2.2265625 -1.11328125 2.2265625 0 0 Z " fill="#A24E4D" transform="translate(398,49)"/>
<path d="M0 0 C0.33 0 0.66 0 1 0 C1 2.97 1 5.94 1 9 C1.66 9 2.32 9 3 9 C3.19335938 9.66386719 3.38671875 10.32773438 3.5859375 11.01171875 C5.52751352 17.59789309 5.52751352 17.59789309 8 24 C8.66 24 9.32 24 10 24 C10.66 22.68 11.32 21.36 12 20 C14.35953094 22.35953094 14.49141413 23.77895617 15 27 C7.85002149 26.75762785 7.85002149 26.75762785 4.125 23.4375 C-0.83328999 16.37569304 -0.24756562 8.2521873 0 0 Z " fill="#B44E51" transform="translate(419,73)"/>
<path d="M0 0 C0.69738281 0.00902344 1.39476562 0.01804688 2.11328125 0.02734375 C3.82566958 0.05080112 5.53788004 0.08666896 7.25 0.125 C7.25 0.455 7.25 0.785 7.25 1.125 C6.25097656 1.17398438 5.25195312 1.22296875 4.22265625 1.2734375 C2.93230469 1.34820312 1.64195312 1.42296875 0.3125 1.5 C-0.97527344 1.56960937 -2.26304687 1.63921875 -3.58984375 1.7109375 C-4.63269531 1.84757812 -5.67554688 1.98421875 -6.75 2.125 C-7.95270964 4.53041929 -7.95316663 6.22866591 -8.06640625 8.9140625 C-8.10830078 9.85507813 -8.15019531 10.79609375 -8.19335938 11.765625 C-8.25233398 13.24289063 -8.25233398 13.24289063 -8.3125 14.75 C-8.35568359 15.74257812 -8.39886719 16.73515625 -8.44335938 17.7578125 C-8.54961069 20.21339838 -8.65164964 22.66908703 -8.75 25.125 C-9.74 25.125 -10.73 25.125 -11.75 25.125 C-11.75 17.535 -11.75 9.945 -11.75 2.125 C-7.50197923 0.00098962 -4.58238937 -0.1126107 0 0 Z " fill="#C84649" transform="translate(489.75,57.875)"/>
<path d="M0 0 C0 3.59857954 -0.95830515 5.09451118 -3 8 C-3.66 8 -4.32 8 -5 8 C-4.67 9.32 -4.34 10.64 -4 12 C-1.03 12.33 1.94 12.66 5 13 C4.979375 13.804375 4.95875 14.60875 4.9375 15.4375 C4.70366379 17.93354885 4.70366379 17.93354885 6 19 C6.07226502 20.85287502 6.0838122 22.70833878 6.0625 24.5625 C6.05347656 25.57441406 6.04445312 26.58632812 6.03515625 27.62890625 C6.02355469 28.41136719 6.01195312 29.19382812 6 30 C5.67 30 5.34 30 5 30 C5 26.7 5 23.4 5 20 C3.68 19.34 2.36 18.68 1 18 C-4.66666667 14.33333333 -4.66666667 14.33333333 -6 13 C-6.5351509 9.78909458 -6.53124861 7.77441489 -4.66015625 5.046875 C-3.15676472 3.30647822 -1.62116183 1.63081161 0 0 Z " fill="#B34B4C" transform="translate(132,60)"/>
<path d="M0 0 C0.66 0.33 1.32 0.66 2 1 C2.37264192 4.75381931 2.33822001 6.50640114 0.171875 9.66796875 C-0.62734375 10.49941406 -1.4265625 11.33085938 -2.25 12.1875 C-3.43335938 13.44626953 -3.43335938 13.44626953 -4.640625 14.73046875 C-6.67332171 16.68576145 -8.69778354 18.37894391 -11 20 C-11 18.35 -11 16.7 -11 15 C-10.34 15 -9.68 15 -9 15 C-9 14.01 -9 13.02 -9 12 C-7.5390625 10.39453125 -7.5390625 10.39453125 -5.625 8.8125 C-4.99851563 8.28269531 -4.37203125 7.75289063 -3.7265625 7.20703125 C-2 6 -2 6 0 6 C0 4.02 0 2.04 0 0 Z " fill="#B54B4E" transform="translate(172,76)"/>
<path d="M0 0 C4.24767563 0.66630206 6.61488132 2.15697145 9.1875 5.5 C11.22553661 9.37749529 12.98048991 13.28447223 14.1875 17.5 C13.8575 18.49 13.5275 19.48 13.1875 20.5 C12.506875 19.51 12.506875 19.51 11.8125 18.5 C11.27625 17.84 10.74 17.18 10.1875 16.5 C9.5275 16.5 8.8675 16.5 8.1875 16.5 C8.455625 15.778125 8.72375 15.05625 9 14.3125 C9.53322385 11.26650448 9.53322385 11.26650448 6.875 8.8125 C5.988125 8.049375 5.10125 7.28625 4.1875 6.5 C3.5275 5.84 2.8675 5.18 2.1875 4.5 C2.5175 4.17 2.8475 3.84 3.1875 3.5 C0.2175 3.5 -2.7525 3.5 -5.8125 3.5 C-2.8125 0.5 -2.8125 0.5 0 0 Z " fill="#B64647" transform="translate(25.8125,48.5)"/>
<path d="M0 0 C0.66 0 1.32 0 2 0 C2 0.66 2 1.32 2 2 C2.99 2 3.98 2 5 2 C5 3.65 5 5.3 5 7 C5.99 7.33 6.98 7.66 8 8 C7.67 9.65 7.34 11.3 7 13 C4.3534665 10.3534665 3.40058003 7.43778736 2 4 C0.68 7.3 -0.64 10.6 -2 14 C-4.1155619 9.76887619 -4.34114905 9.22977778 -3 5 C-1.5625 2.1875 -1.5625 2.1875 0 0 Z " fill="#BA4743" transform="translate(24,64)"/>
<path d="M0 0 C2.86453858 3.41016497 4.34703566 6.90694544 6 11 C2.86650268 12.04449911 2.01031744 11.93423645 -1 11 C-0.938125 12.010625 -0.87625 13.02125 -0.8125 14.0625 C-1.02642827 18.55499372 -2.04613532 21.01085961 -4 25 C-5.3582089 21.26039816 -4.62928896 18.59470752 -3.625 14.8125 C-3.21121094 13.21341797 -3.21121094 13.21341797 -2.7890625 11.58203125 C-2 9 -2 9 -1 8 C-0.76924918 6.65252916 -0.58846937 5.29622435 -0.4375 3.9375 C-0.293125 2.638125 -0.14875 1.33875 0 0 Z " fill="#D24445" transform="translate(138,82)"/>
<path d="M0 0 C0.74958984 0.00451172 1.49917969 0.00902344 2.27148438 0.01367188 C4.11852383 0.02543646 5.96552213 0.04337135 7.8125 0.0625 C8.1425 0.7225 8.4725 1.3825 8.8125 2.0625 C7.22308594 2.04509766 7.22308594 2.04509766 5.6015625 2.02734375 C4.21354342 2.01796524 2.82552245 2.00886511 1.4375 2 C0.38949219 1.98743164 0.38949219 1.98743164 -0.6796875 1.97460938 C-4.56045376 1.8789558 -4.56045376 1.8789558 -8.1875 3.0625 C-8.5175 11.6425 -8.8475 20.2225 -9.1875 29.0625 C-9.5175 29.0625 -9.8475 29.0625 -10.1875 29.0625 C-10.5175 19.8225 -10.8475 10.5825 -11.1875 1.0625 C-7.42449626 -0.19183458 -3.91539091 -0.04445422 0 0 Z " fill="#B14140" transform="translate(272.1875,58.9375)"/>
<path d="M0 0 C2.77765666 2.46995218 4.36586602 5.18000819 6.125 8.4375 C6.64320313 9.38496094 7.16140625 10.33242187 7.6953125 11.30859375 C8.79918488 13.58574366 9.52139435 15.53109526 10 18 C7.5625 17.3125 7.5625 17.3125 5 16 C4.1875 13.375 4.1875 13.375 4 11 C3.01 10.67 2.02 10.34 1 10 C0 2.25 0 2.25 0 0 Z " fill="#B54546" transform="translate(328,59)"/>
<path d="M0 0 C1.17904475 4.24830408 2.0326419 8.9347162 0 13 C-0.99 13 -1.98 13 -3 13 C-3 14.32 -3 15.64 -3 17 C-3.66 17 -4.32 17 -5 17 C-5 18.98 -5 20.96 -5 23 C-6.98 23.99 -6.98 23.99 -9 25 C-6.68860831 16.38296958 -3.39204534 8.23311977 0 0 Z " fill="#B9484A" transform="translate(15,58)"/>
<path d="M0 0 C1.12563103 0.00212242 1.12563103 0.00212242 2.27400208 0.00428772 C4.66838585 0.00988065 7.06267578 0.02243181 9.45703125 0.03515625 C11.08137886 0.04017217 12.70572793 0.04473491 14.33007812 0.04882812 C18.30993194 0.05984777 22.28971569 0.07710752 26.26953125 0.09765625 C25.93953125 0.75765625 25.60953125 1.41765625 25.26953125 2.09765625 C14.04953125 2.09765625 2.82953125 2.09765625 -8.73046875 2.09765625 C-9.06046875 3.08765625 -9.39046875 4.07765625 -9.73046875 5.09765625 C-10.39046875 5.09765625 -11.05046875 5.09765625 -11.73046875 5.09765625 C-11.41796875 3.16015625 -11.41796875 3.16015625 -10.73046875 1.09765625 C-7.09813773 -0.11312076 -3.77924888 -0.02678539 0 0 Z " fill="#9B4A4C" transform="translate(73.73046875,68.90234375)"/>
<path d="M0 0 C1.25619141 0.01353516 2.51238281 0.02707031 3.80664062 0.04101562 C6.89237279 0.07621409 9.97721024 0.12545695 13.0625 0.1875 C13.0625 0.5175 13.0625 0.8475 13.0625 1.1875 C11.90463989 1.217229 11.90463989 1.217229 10.72338867 1.24755859 C7.23191042 1.34271143 3.74103848 1.45243047 0.25 1.5625 C-0.96494141 1.5934375 -2.17988281 1.624375 -3.43164062 1.65625 C-5.17670898 1.71425781 -5.17670898 1.71425781 -6.95703125 1.7734375 C-8.03057861 1.8048584 -9.10412598 1.8362793 -10.21020508 1.86865234 C-13.1535765 2.00342307 -13.1535765 2.00342307 -15.9375 4.1875 C-16.9275 4.1875 -17.9175 4.1875 -18.9375 4.1875 C-19.2675 5.1775 -19.5975 6.1675 -19.9375 7.1875 C-20.5975 7.1875 -21.2575 7.1875 -21.9375 7.1875 C-21.875 5.375 -21.875 5.375 -20.9375 3.1875 C-14.3366941 -0.80368496 -7.51160736 -0.15361966 0 0 Z " fill="#A65250" transform="translate(224.9375,48.8125)"/>
<path d="M0 0 C6.875 0.875 6.875 0.875 8 2 C10.33297433 2.04092937 12.66705225 2.04241723 15 2 C15 2.66 15 3.32 15 4 C12.55028376 5.22485812 10.85765539 5.16722808 8.125 5.1875 C6.82949219 5.20876953 6.82949219 5.20876953 5.5078125 5.23046875 C2.8758712 4.98859252 1.26019456 4.32983541 -1 3 C-0.67 2.01 -0.34 1.02 0 0 Z " fill="#AD484A" transform="translate(336,95)"/>
<path d="M0 0 C0 1.98 0 3.96 0 6 C-2.31 5.67 -4.62 5.34 -7 5 C-7 3.35 -7 1.7 -7 0 C-3.86650268 -1.04449911 -3.01031744 -0.93423645 0 0 Z " fill="#D73C3C" transform="translate(10,94)"/>
<path d="M0 0 C3.58245688 0.68386655 5.15590754 2.54816409 7.23046875 5.42578125 C7.23046875 6.41578125 7.23046875 7.40578125 7.23046875 8.42578125 C6.52921875 7.80703125 5.82796875 7.18828125 5.10546875 6.55078125 C0.99692957 3.5140349 -2.01690987 2.23104554 -7.14453125 2.80078125 C-8.44390625 3.11015625 -8.44390625 3.11015625 -9.76953125 3.42578125 C-6.79296424 -0.13851555 -4.45763817 -0.13816497 0 0 Z " fill="#AB4144" transform="translate(318.76953125,48.57421875)"/>
<path d="M0 0 C0.66 0.33 1.32 0.66 2 1 C-1.63 4.3 -5.26 7.6 -9 11 C-10 8 -10 8 -9.3125 5.375 C-8 3 -8 3 -6.125 2.3125 C-5.42375 2.209375 -4.7225 2.10625 -4 2 C-3.29875 1.62875 -2.5975 1.2575 -1.875 0.875 C-1.25625 0.58625 -0.6375 0.2975 0 0 Z " fill="#BF4D4C" transform="translate(153,101)"/>
<path d="M0 0 C0.99 0.33 1.98 0.66 3 1 C2.67 1.99 2.34 2.98 2 4 C1.01 4 0.02 4 -1 4 C-1.0825 4.763125 -1.165 5.52625 -1.25 6.3125 C-2.14615794 9.52373261 -3.21611025 10.29374499 -6 12 C-6 10.02 -6 8.04 -6 6 C-5.34 6 -4.68 6 -4 6 C-4 5.01 -4 4.02 -4 3 C-3.01 2.67 -2.02 2.34 -1 2 C-0.67 1.34 -0.34 0.68 0 0 Z " fill="#C84745" transform="translate(477,53)"/>
<path d="M0 0 C3.12572333 2.69159509 4.8036782 5.9634132 6.75 9.5625 C7.38421875 10.71878906 8.0184375 11.87507813 8.671875 13.06640625 C9.11015625 14.03449219 9.5484375 15.00257812 10 16 C9.67 16.66 9.34 17.32 9 18 C8.34 17.67 7.68 17.34 7 17 C7 16.01 7 15.02 7 14 C6.01 13.67 5.02 13.34 4 13 C4.33 12.01 4.66 11.02 5 10 C4.01 9.67 3.02 9.34 2 9 C2.33 8.01 2.66 7.02 3 6 C2.34 6 1.68 6 1 6 C0.67 4.02 0.34 2.04 0 0 Z " fill="#B84847" transform="translate(382,55)"/>
<path d="M0 0 C0.33 0 0.66 0 1 0 C1 5.61 1 11.22 1 17 C0.01 17.33 -0.98 17.66 -2 18 C-1.85805236 15.93722893 -1.71127784 13.87478969 -1.5625 11.8125 C-1.48128906 10.66394531 -1.40007812 9.51539062 -1.31640625 8.33203125 C-1.04596188 5.48401829 -0.62478253 2.78789518 0 0 Z " fill="#BC4949" transform="translate(399,56)"/>
<path d="M0 0 C0.02578125 0.74765625 0.0515625 1.4953125 0.078125 2.265625 C0.28686884 8.40692205 0.28686884 8.40692205 3.0625 13.6875 C3.701875 14.120625 4.34125 14.55375 5 15 C3.68 15 2.36 15 1 15 C-2.24900602 10.02495953 -3.49940808 7.11774896 -3 1 C-1 0 -1 0 0 0 Z " fill="#BB4C4C" transform="translate(163,58)"/>
<path d="M0 0 C0.33 0 0.66 0 1 0 C1.01981934 0.57967529 1.03963867 1.15935059 1.06005859 1.7565918 C1.15572601 4.40065937 1.26523453 7.0439817 1.375 9.6875 C1.4059375 10.59951172 1.436875 11.51152344 1.46875 12.45117188 C1.67079895 17.08146026 2.00560989 20.74530109 4 25 C3.625 27.3125 3.625 27.3125 3 29 C-0.31484432 22.79662991 -0.36372414 17.50753869 -0.1875 10.5625 C-0.17396484 9.54478516 -0.16042969 8.52707031 -0.14648438 7.47851562 C-0.1113661 4.98511786 -0.06218559 2.49284488 0 0 Z " fill="#AE575A" transform="translate(200,66)"/>
<path d="M0 0 C0.78246094 -0.02578125 1.56492187 -0.0515625 2.37109375 -0.078125 C5.04181509 0.32176911 5.88227439 1.19699122 7.5625 3.25 C5.7925132 3.44532961 4.02145721 3.63098882 2.25 3.8125 C1.26386719 3.91691406 0.27773438 4.02132812 -0.73828125 4.12890625 C-3.4375 4.25 -3.4375 4.25 -6.4375 3.25 C-6.4375 2.59 -6.4375 1.93 -6.4375 1.25 C-4.11063547 0.08656773 -2.59028587 0.05104012 0 0 Z " fill="#B04646" transform="translate(372.4375,48.75)"/>
<path d="M0 0 C0.33 0.66 0.66 1.32 1 2 C-0.32 2.99 -1.64 3.98 -3 5 C-3.66 4.67 -4.32 4.34 -5 4 C-5.226875 4.61875 -5.45375 5.2375 -5.6875 5.875 C-7.37929835 8.61410209 -8.99244161 9.05024472 -12 10 C-8.44984265 5.40493818 -5.52289491 2.23545746 0 0 Z " fill="#BB4D4C" transform="translate(145,50)"/>
<path d="M0 0 C0.5775 0.2475 1.155 0.495 1.75 0.75 C1.09 0.75 0.43 0.75 -0.25 0.75 C-0.25 1.41 -0.25 2.07 -0.25 2.75 C-0.91 2.75 -1.57 2.75 -2.25 2.75 C-2.58 3.74 -2.91 4.73 -3.25 5.75 C-4.24 5.75 -5.23 5.75 -6.25 5.75 C-6.25 6.74 -6.25 7.73 -6.25 8.75 C-6.91 8.75 -7.57 8.75 -8.25 8.75 C-6.88064896 4.64194688 -5.04707216 -0.5607858 0 0 Z " fill="#B1454F" transform="translate(479.25,50.25)"/>
<path d="M0 0 C1.41655793 -0.0272415 2.83327045 -0.04650467 4.25 -0.0625 C5.43335938 -0.07990234 5.43335938 -0.07990234 6.640625 -0.09765625 C8.90691002 -0.00385306 10.8288895 0.36758937 13 1 C13 1.66 13 2.32 13 3 C11.39667209 3.08121924 9.79215974 3.13929134 8.1875 3.1875 C7.29417969 3.22230469 6.40085937 3.25710937 5.48046875 3.29296875 C2.58352485 2.95081002 1.77444972 2.24606427 0 0 Z " fill="#C04A4C" transform="translate(393,96)"/>
<path d="M0 0 C0.8125 1.625 0.8125 1.625 1 4 C-0.46818136 6.24609835 -2.15852858 8.02378677 -4 10 C-4.99 9.34 -5.98 8.68 -7 8 C-6.34 8 -5.68 8 -5 8 C-4.9175 7.4225 -4.835 6.845 -4.75 6.25 C-3.79468987 3.3840696 -2.21530827 2.0009236 0 0 Z " fill="#C84748" transform="translate(151,44)"/>
<path d="M0 0 C0.66 0 1.32 0 2 0 C2 1.98 2 3.96 2 6 C-0.31 5.67 -2.62 5.34 -5 5 C-5 4.34 -5 3.68 -5 3 C-3.68 3 -2.36 3 -1 3 C-0.67 2.01 -0.34 1.02 0 0 Z " fill="#D23A3A" transform="translate(47,93)"/>
<path d="M0 0 C0.99 0.33 1.98 0.66 3 1 C3 1.99 3 2.98 3 4 C3.99 4.33 4.98 4.66 6 5 C6 7.31 6 9.62 6 12 C3.25207517 8.59780735 0 4.51535412 0 0 Z " fill="#B7474A" transform="translate(326,79)"/>
<path d="M0 0 C-4.5 4 -4.5 4 -9 4 C-9 3.01 -9 2.02 -9 1 C-2.25 -1.125 -2.25 -1.125 0 0 Z " fill="#BF4A4D" transform="translate(141,115)"/>
<path d="M0 0 C0.33 0 0.66 0 1 0 C1.3152595 5.98993047 0.68219822 9.63560356 -2 15 C-3.31534494 11.34142468 -2.65468309 8.91973519 -1.5625 5.25 C-1.27503906 4.26515625 -0.98757812 3.2803125 -0.69140625 2.265625 C-0.46324219 1.51796875 -0.23507813 0.7703125 0 0 Z " fill="#B54B4C" transform="translate(136,92)"/>
<path d="M0 0 C0.33 0 0.66 0 1 0 C1.33 2.97 1.66 5.94 2 9 C1.01 9.66 0.02 10.32 -1 11 C-2.41687119 6.74938644 -1.19320039 4.28148375 0 0 Z " fill="#B54A4C" transform="translate(202,56)"/>
<path d="M0 0 C3 2 3 2 3.6875 4.625 C3.790625 5.40875 3.89375 6.1925 4 7 C1.13275314 6.42655063 0.1385485 6.1385485 -2 4 C-1.34 2.68 -0.68 1.36 0 0 Z " fill="#C64D4D" transform="translate(430,93)"/>
<path d="M0 0 C0.763125 0.061875 1.52625 0.12375 2.3125 0.1875 C2.3125 0.8475 2.3125 1.5075 2.3125 2.1875 C2.9725 2.5175 3.6325 2.8475 4.3125 3.1875 C1.0125 3.1875 -2.2875 3.1875 -5.6875 3.1875 C-2.6875 0.1875 -2.6875 0.1875 0 0 Z " fill="#D93C3A" transform="translate(221.6875,95.8125)"/>
<path d="M0 0 C-3 2 -3 2 -6 2 C-6.33 2.99 -6.66 3.98 -7 5 C-7.66 5 -8.32 5 -9 5 C-8.75 3.125 -8.75 3.125 -8 1 C-5.08518252 -1.1107299 -3.34823603 -1.19579858 0 0 Z " fill="#B0484F" transform="translate(212,51)"/>
<path d="M0 0 C0.66 0 1.32 0 2 0 C2.99 2.64 3.98 5.28 5 8 C1.125 6.125 1.125 6.125 0 5 C-0.04063832 3.33382885 -0.042721 1.66611905 0 0 Z " fill="#C44D50" transform="translate(204,91)"/>
<path d="M0 0 C0.33 0 0.66 0 1 0 C2.125 6.75 2.125 6.75 1 9 C0.34 9 -0.32 9 -1 9 C-1.09765625 2.84765625 -1.09765625 2.84765625 -1 1 C-0.67 0.67 -0.34 0.34 0 0 Z " fill="#C74448" transform="translate(133,107)"/>
<path d="M0 0 C0.99 0 1.98 0 3 0 C3 0.66 3 1.32 3 2 C5.31 2.33 7.62 2.66 10 3 C10 3.33 10 3.66 10 4 C8.54207116 4.05399736 7.08357288 4.09279177 5.625 4.125 C4.81289063 4.14820312 4.00078125 4.17140625 3.1640625 4.1953125 C1 4 1 4 -1 2 C-0.67 1.34 -0.34 0.68 0 0 Z " fill="#CC4443" transform="translate(433,96)"/>
<path d="M0 0 C0.33 0 0.66 0 1 0 C1 2.97 1 5.94 1 9 C-0.32 9.33 -1.64 9.66 -3 10 C-2.01 6.7 -1.02 3.4 0 0 Z " fill="#A6494B" transform="translate(100,89)"/>
</svg>
