<?xml version="1.0" encoding="UTF-8"?>
<svg version="1.1" xmlns="http://www.w3.org/2000/svg" width="574" height="151">
<path d="M0 0 C0.99 0.33 1.98 0.66 3 1 C2.4349718 9.09473791 0.75030926 16.5922718 -1.359375 24.40820312 C-2.66890733 29.54473078 -3.63326995 33.78940598 -2 39 C0.24249058 41.10597088 0.24249058 41.10597088 3.0625 42.5625 C5.84765625 44.12890625 5.84765625 44.12890625 8 46 C8.44157089 49.46604937 8.47683916 51.30527098 6.47460938 54.22241211 C5.77142578 54.90053955 5.06824219 55.57866699 4.34375 56.27734375 C3.17972656 57.41913086 3.17972656 57.41913086 1.9921875 58.58398438 C0.75855469 59.74897461 0.75855469 59.74897461 -0.5 60.9375 C-1.29148438 61.71029297 -2.08296875 62.48308594 -2.8984375 63.27929688 C-7.22147777 67.47122854 -11.66683411 71.48538056 -16.22265625 75.42114258 C-19.58269779 78.40594871 -22.61142561 81.70185311 -25.703125 84.9609375 C-27.92412555 86.93264207 -29.07171736 87.75381695 -32 88 C-32.33 87.67 -32.66 87.34 -33 87 C-32.87877583 78.96530309 -30.71940178 71.29322254 -28.640625 63.59179688 C-27.33109267 58.45526922 -26.36673005 54.21059402 -28 49 C-30.24249058 46.89402912 -30.24249058 46.89402912 -33.0625 45.4375 C-35.84765625 43.87109375 -35.84765625 43.87109375 -38 42 C-38.68359375 39.1875 -38.68359375 39.1875 -38 36 C-36.28319544 33.54250935 -34.19890124 31.5880651 -32 29.5625 C-31.40421143 28.99120361 -30.80842285 28.41990723 -30.19458008 27.83129883 C-26.50921519 24.32187975 -22.7349164 20.91758859 -18.84765625 17.6328125 C-15.96031014 15.08120431 -13.32052217 12.29265973 -10.6640625 9.50390625 C-9 8 -9 8 -7 8 C-7 7.34 -7 6.68 -7 6 C-5.57421875 4.45703125 -5.57421875 4.45703125 -3.6875 2.8125 C-3.07261719 2.26207031 -2.45773438 1.71164063 -1.82421875 1.14453125 C-1.22222656 0.76683594 -0.62023437 0.38914063 0 0 Z " fill="#D64444" transform="translate(165,43)"/>
<path d="M0 0 C0.74121094 -0.02191406 1.48242188 -0.04382812 2.24609375 -0.06640625 C6.305894 1.03583294 8.53415258 3.90267646 10.7043457 7.40551758 C11.85264614 9.4982526 12.93629441 11.61307447 14 13.75 C17.2603821 20.19411869 20.78484218 26.40569427 24.5625 32.5625 C24.60008423 31.16173218 24.60008423 31.16173218 24.63842773 29.73266602 C24.73336928 26.27924811 24.83261258 22.8260104 24.93481445 19.37280273 C24.97821813 17.87610731 25.01988913 16.37936061 25.05981445 14.88256836 C25.11738616 12.73535688 25.18111716 10.58840479 25.24609375 8.44140625 C25.28275146 7.1479126 25.31940918 5.85441895 25.35717773 4.52172852 C25.5625 1.5625 25.5625 1.5625 26.5625 0.5625 C28.375 0.4296875 28.375 0.4296875 30.5625 0.4375 C31.284375 0.43492188 32.00625 0.43234375 32.75 0.4296875 C34.5625 0.5625 34.5625 0.5625 35.5625 1.5625 C35.66571416 2.95845301 35.70099396 4.35953018 35.70776367 5.75927734 C35.71414352 6.65045258 35.72052338 7.54162781 35.72709656 8.45980835 C35.72820938 9.42955597 35.7293222 10.39930359 35.73046875 11.3984375 C35.73546135 12.88387558 35.73546135 12.88387558 35.74055481 14.39932251 C35.74562888 16.49928318 35.74796299 18.59925195 35.74780273 20.69921875 C35.74998596 23.91680179 35.76812767 27.13404035 35.78710938 30.3515625 C35.79004381 32.38801966 35.79202827 34.42447845 35.79296875 36.4609375 C35.80015427 37.42663666 35.80733978 38.39233582 35.81474304 39.38729858 C35.81166641 40.28477814 35.80858978 41.18225769 35.80541992 42.10693359 C35.80684494 42.89667572 35.80826996 43.68641785 35.80973816 44.50009155 C35.5625 46.5625 35.5625 46.5625 33.5625 49.5625 C30.98828125 50.20703125 30.98828125 50.20703125 27.875 50.375 C26.86050781 50.46394531 25.84601563 50.55289063 24.80078125 50.64453125 C16.44076144 47.851135 12.04502124 35.30388493 8.125 27.9375 C6.289375 24.51375 4.45375 21.09 2.5625 17.5625 C2.2325 28.1225 1.9025 38.6825 1.5625 49.5625 C-1.7375 49.5625 -5.0375 49.5625 -8.4375 49.5625 C-8.53637183 43.22709716 -8.60897073 36.8921433 -8.65722656 30.55615234 C-8.67734276 28.40079933 -8.70463925 26.24550089 -8.73925781 24.09033203 C-8.78777486 20.99237605 -8.81046873 17.89514154 -8.828125 14.796875 C-8.84877014 13.83320007 -8.86941528 12.86952515 -8.89068604 11.87664795 C-8.89292888 5.19072448 -8.89292888 5.19072448 -6.54956055 1.95825195 C-4.16090899 0.37971525 -2.84779496 -0.00493552 0 0 Z " fill="#D54444" transform="translate(372.4375,61.4375)"/>
<path d="M0 0 C0.7528125 -0.0103125 1.505625 -0.020625 2.28125 -0.03125 C6.05965932 0.87343955 7.97581673 3.67007174 9.9921875 6.86254883 C10.44851563 7.71872803 10.90484375 8.57490723 11.375 9.45703125 C11.88546875 10.40513672 12.3959375 11.35324219 12.921875 12.33007812 C13.44265625 13.31427734 13.9634375 14.29847656 14.5 15.3125 C15.54109267 17.25681787 16.58274718 19.20083503 17.625 21.14453125 C18.11484375 22.06186035 18.6046875 22.97918945 19.109375 23.92431641 C20.85094704 27.15001602 22.66040602 30.32935365 24.5 33.5 C24.53758423 32.05379272 24.53758423 32.05379272 24.57592773 30.57836914 C24.66985306 27.01312158 24.77010939 23.44807567 24.87231445 19.88305664 C24.91571985 18.33785711 24.95739071 16.79260786 24.99731445 15.24731445 C25.05488199 13.03060904 25.11861424 10.8141552 25.18359375 8.59765625 C25.20866249 7.55545677 25.20866249 7.55545677 25.23423767 6.49220276 C25.38612829 1.61387171 25.38612829 1.61387171 26.5 0.5 C28.3125 0.3671875 28.3125 0.3671875 30.5 0.375 C31.221875 0.37242188 31.94375 0.36984375 32.6875 0.3671875 C34.5 0.5 34.5 0.5 35.5 1.5 C35.60321416 2.89595301 35.63849396 4.29703018 35.64526367 5.69677734 C35.65164352 6.58795258 35.65802338 7.47912781 35.66459656 8.39730835 C35.66570938 9.36705597 35.6668222 10.33680359 35.66796875 11.3359375 C35.67296135 12.82137558 35.67296135 12.82137558 35.67805481 14.33682251 C35.68312888 16.43678318 35.68546299 18.53675195 35.68530273 20.63671875 C35.68748596 23.85430179 35.70562767 27.07154035 35.72460938 30.2890625 C35.72754381 32.32551966 35.72952827 34.36197845 35.73046875 36.3984375 C35.73765427 37.36413666 35.74483978 38.32983582 35.75224304 39.32479858 C35.74916641 40.22227814 35.74608978 41.11975769 35.74291992 42.04443359 C35.74434494 42.83417572 35.74576996 43.62391785 35.74723816 44.43759155 C35.5 46.5 35.5 46.5 33.5 49.5 C30.8203125 49.96875 30.8203125 49.96875 27.625 50 C26.05105469 50.04640625 26.05105469 50.04640625 24.4453125 50.09375 C20.48943702 49.29627908 19.81486118 47.74687614 17.5 44.5 C16.31487722 42.47929766 15.17776203 40.4299131 14.08203125 38.359375 C13.16067383 36.63074219 13.16067383 36.63074219 12.22070312 34.8671875 C11.58435218 33.66160779 10.94828772 32.45587683 10.3125 31.25 C9.05066183 28.86845812 7.78542261 26.48876953 6.51953125 24.109375 C5.96370361 23.05717773 5.40787598 22.00498047 4.83520508 20.92089844 C3.71198992 18.61942974 3.71198992 18.61942974 2.5 17.5 C2.47494385 18.43384521 2.4498877 19.36769043 2.42407227 20.32983398 C2.32913072 23.78325189 2.22988742 27.2364896 2.12768555 30.68969727 C2.08428187 32.18639269 2.04261087 33.68313939 2.00268555 35.17993164 C1.94511384 37.32714312 1.88138284 39.47409521 1.81640625 41.62109375 C1.76141968 43.56133423 1.76141968 43.56133423 1.70532227 45.54077148 C1.5 48.5 1.5 48.5 0.5 49.5 C-1.3125 49.6328125 -1.3125 49.6328125 -3.5 49.625 C-4.221875 49.62757812 -4.94375 49.63015625 -5.6875 49.6328125 C-7.5 49.5 -7.5 49.5 -8.5 48.5 C-8.61344705 47.14041146 -8.65950129 45.77508989 -8.67700195 44.41088867 C-8.68983719 43.54296188 -8.70267242 42.6750351 -8.71589661 41.7808075 C-8.72697701 40.36370232 -8.72697701 40.36370232 -8.73828125 38.91796875 C-8.746353 37.95224442 -8.75442474 36.98652008 -8.76274109 35.99153137 C-8.77660016 33.94285894 -8.78731412 31.89416324 -8.79516602 29.84545898 C-8.81237112 26.71098025 -8.85624003 23.57755803 -8.90039062 20.44335938 C-8.91051771 18.45573695 -8.91903376 16.46810552 -8.92578125 14.48046875 C-8.94328934 13.54180466 -8.96079742 12.60314056 -8.97883606 11.6360321 C-8.95713307 5.12726484 -8.95713307 5.12726484 -6.61206055 1.90942383 C-4.19535183 0.29670167 -2.88731928 -0.03955232 0 0 Z " fill="#D34343" transform="translate(316.5,61.5)"/>
<path d="M0 0 C1.03318359 -0.020625 2.06636719 -0.04125 3.13085938 -0.0625 C8.70823109 -0.09112025 12.93707867 -0.03224904 17.6875 3.25 C23.22119896 10.27929327 22.89614879 16.3782734 22.9375 25 C22.958125 26.05960938 22.97875 27.11921875 23 28.2109375 C23.03175578 34.60972752 22.64213538 39.52057661 19.6875 45.25 C15.93372591 48.96437854 13.48474246 49.75479311 8.25 49.74609375 C6.41308594 49.74706055 6.41308594 49.74706055 4.5390625 49.74804688 C2.63253906 49.71807617 2.63253906 49.71807617 0.6875 49.6875 C-1.21902344 49.69813477 -1.21902344 49.69813477 -3.1640625 49.70898438 C-13.76813564 49.63643019 -13.76813564 49.63643019 -18.3125 46.25 C-22.53848431 39.68957457 -21.75516153 32.2543147 -21.6875 24.6875 C-21.69910156 23.38619141 -21.71070313 22.08488281 -21.72265625 20.74414062 C-21.71685547 18.85791992 -21.71685547 18.85791992 -21.7109375 16.93359375 C-21.70586182 15.22514282 -21.70586182 15.22514282 -21.70068359 13.48217773 C-21.15646385 8.95077827 -19.71559706 5.52155671 -16.3125 2.4375 C-11.20497648 -0.59509209 -5.7535818 0.02839522 0 0 Z M-10.03613281 11.4284668 C-11.79237187 13.93483627 -11.68506872 15.67862394 -11.67578125 18.72265625 C-11.67513672 19.78677734 -11.67449219 20.85089844 -11.67382812 21.94726562 C-11.65771484 23.05779297 -11.64160156 24.16832031 -11.625 25.3125 C-11.62822266 26.42689453 -11.63144531 27.54128906 -11.63476562 28.68945312 C-12.00709231 34.53594804 -12.00709231 34.53594804 -9.3125 39.25 C-7.3115311 39.54315936 -7.3115311 39.54315936 -5.03125 39.48046875 C-4.18949219 39.47853516 -3.34773438 39.47660156 -2.48046875 39.47460938 C-1.60003906 39.46236328 -0.71960938 39.45011719 0.1875 39.4375 C1.06792969 39.43685547 1.94835937 39.43621094 2.85546875 39.43554688 C7.42512174 39.5583811 7.42512174 39.5583811 11.6875 38.25 C13.08683158 33.69548765 12.87119006 28.90802131 12.875 24.1875 C12.89336914 22.98383789 12.89336914 22.98383789 12.91210938 21.75585938 C13.01461398 16.18668748 13.01461398 16.18668748 10.6875 11.25 C7.41728041 9.61489021 3.84016249 10.02371701 0.25 10 C-0.52666016 9.979375 -1.30332031 9.95875 -2.10351562 9.9375 C-6.29463898 9.81416979 -6.29463898 9.81416979 -10.03613281 11.4284668 Z " fill="#D84243" transform="translate(273.3125,61.75)"/>
<path d="M0 0 C4.03853909 0.84136231 5.31395781 2.52895117 8 5.625 C9.60571289 8.7878418 9.60571289 8.7878418 10.97265625 12.32421875 C11.22244736 12.95930862 11.47223846 13.5943985 11.729599 14.24873352 C12.51963144 16.26541845 13.29137895 18.28851895 14.0625 20.3125 C14.5827678 21.65086419 15.10424308 22.98875964 15.62695312 24.32617188 C16.63504861 26.90873232 17.63355064 29.49469088 18.62548828 32.08349609 C20.125288 35.94781132 21.70522824 39.77350405 23.33374023 43.58520508 C24 45.625 24 45.625 24 49.625 C20.28675672 50.57983399 17.58452509 51.12081851 14 49.625 C12.23015398 46.88853646 11.14860763 43.91422331 10 40.875 C9.6589624 40.01986816 9.3179248 39.16473633 8.96655273 38.28369141 C7.95685791 35.73833451 6.97470925 33.18392924 6 30.625 C5.47044646 29.25245195 4.94053726 27.88004102 4.41015625 26.5078125 C3.56541488 24.30903642 2.73050607 22.10642989 1.91015625 19.8984375 C1.20099817 17.69478249 1.20099817 17.69478249 0 16.625 C-1.98 21.245 -3.96 25.865 -6 30.625 C-3.69 30.625 -1.38 30.625 1 30.625 C3 32.8125 3 32.8125 4 35.625 C3.5625 38.30078125 3.5625 38.30078125 3 40.625 C1.66195313 40.5940625 1.66195313 40.5940625 0.296875 40.5625 C-3.29149269 40.62573115 -6.50577354 40.78743261 -10 41.625 C-11.63027907 43.63149732 -12.22786614 45.37200358 -13.04296875 47.80859375 C-14 49.625 -14 49.625 -15.92578125 50.41015625 C-18.89962728 50.78518834 -21.27399529 50.98800235 -24 49.625 C-23.42917242 43.98459131 -21.92182845 39.26227307 -19.796875 34.0234375 C-19.31737396 32.82420151 -19.31737396 32.82420151 -18.82818604 31.60073853 C-18.1530095 29.92002139 -17.47371644 28.24095267 -16.79052734 26.56347656 C-15.75263458 24.00649063 -14.73711455 21.44135844 -13.72265625 18.875 C-13.06123934 17.23643621 -12.39852213 15.59839657 -11.734375 13.9609375 C-11.43521179 13.19937347 -11.13604858 12.43780945 -10.82781982 11.65316772 C-8.60453973 6.27456856 -6.13440972 1.27800202 0 0 Z " fill="#D04545" transform="translate(26,61.375)"/>
<path d="M0 0 C1.19753906 0.00193359 2.39507812 0.00386719 3.62890625 0.00585938 C4.87027344 0.01810547 6.11164063 0.03035156 7.390625 0.04296875 C8.64746094 0.04361328 9.90429688 0.04425781 11.19921875 0.04492188 C20.50032676 0.09017051 20.50032676 0.09017051 21.640625 1.23046875 C21.640625 4.20046875 21.640625 7.17046875 21.640625 10.23046875 C8.275625 10.72546875 8.275625 10.72546875 -5.359375 11.23046875 C-5.38 15.49984375 -5.400625 19.76921875 -5.421875 24.16796875 C-5.430979 25.51624756 -5.44008301 26.86452637 -5.44946289 28.25366211 C-5.45196045 29.30690674 -5.45445801 30.36015137 -5.45703125 31.4453125 C-5.46226807 32.5293335 -5.46750488 33.61335449 -5.47290039 34.73022461 C-5.64364397 37.17096823 -5.64364397 37.17096823 -4.359375 38.23046875 C-2.51900366 38.37619611 -0.67346786 38.45774793 1.171875 38.51171875 C2.29207031 38.54910156 3.41226562 38.58648437 4.56640625 38.625 C5.74589844 38.65980469 6.92539062 38.69460937 8.140625 38.73046875 C10.46367466 38.79901776 12.78660722 38.87170406 15.109375 38.94921875 C16.14513672 38.97951172 17.18089844 39.00980469 18.24804688 39.04101562 C20.640625 39.23046875 20.640625 39.23046875 21.640625 40.23046875 C21.71242464 41.74974913 21.72454507 43.27214357 21.703125 44.79296875 C21.69410156 45.61925781 21.68507813 46.44554687 21.67578125 47.296875 C21.66417969 47.93496094 21.65257812 48.57304688 21.640625 49.23046875 C14.94763589 50.02793128 8.38039646 50.46070939 1.640625 50.23046875 C0.76921875 50.20210937 -0.1021875 50.17375 -1 50.14453125 C-6.47186622 49.80049176 -10.13751102 49.03014633 -14.359375 45.23046875 C-19.40029982 36.10879526 -18.52106033 20.93316977 -16.609375 10.91796875 C-15.05533518 6.33355129 -13.54524074 3.31839691 -9.12011719 1.1159668 C-5.94001296 0.0959599 -3.33732532 -0.01248193 0 0 Z " fill="#D84141" transform="translate(487.359375,61.76953125)"/>
<path d="M0 0 C1.20527344 -0.01224609 2.41054687 -0.02449219 3.65234375 -0.03710938 C4.80089844 -0.03904297 5.94945312 -0.04097656 7.1328125 -0.04296875 C8.1861377 -0.04707764 9.23946289 -0.05118652 10.32470703 -0.05541992 C12.875 0.1875 12.875 0.1875 14.875 2.1875 C15.0625 5.75 15.0625 5.75 14.875 9.1875 C13.17007235 10.89242765 10.9299177 10.39720474 8.59765625 10.46875 C7.52708984 10.50613281 6.45652344 10.54351562 5.35351562 10.58203125 C4.22623047 10.61683594 3.09894531 10.65164062 1.9375 10.6875 C-0.28008247 10.75620307 -2.49754543 10.82891789 -4.71484375 10.90625 C-6.19778931 10.95168945 -6.19778931 10.95168945 -7.71069336 10.99804688 C-10.13552587 11.03614981 -10.13552587 11.03614981 -12.125 12.1875 C-13.0656595 14.93425554 -13.25321063 17.48765682 -13.2578125 20.375 C-13.25910156 21.15617187 -13.26039063 21.93734375 -13.26171875 22.7421875 C-13.25785156 23.54914063 -13.25398437 24.35609375 -13.25 25.1875 C-13.25386719 25.99445313 -13.25773438 26.80140625 -13.26171875 27.6328125 C-13.25978516 28.80457031 -13.25978516 28.80457031 -13.2578125 30 C-13.25668457 30.70769531 -13.25555664 31.41539063 -13.25439453 32.14453125 C-13.12011502 34.26462733 -12.70216498 36.14707563 -12.125 38.1875 C-11.37814941 38.20731934 -10.63129883 38.22713867 -9.86181641 38.24755859 C-6.49084395 38.34258211 -3.12051071 38.45235259 0.25 38.5625 C1.425625 38.5934375 2.60125 38.624375 3.8125 38.65625 C4.93398437 38.69492188 6.05546875 38.73359375 7.2109375 38.7734375 C8.24782715 38.8048584 9.2847168 38.8362793 10.35302734 38.86865234 C12.875 39.1875 12.875 39.1875 14.875 41.1875 C15.1875 44.6875 15.1875 44.6875 14.875 48.1875 C11.00391232 50.76822512 7.79443208 50.45006281 3.3125 50.375 C2.50200195 50.3649292 1.69150391 50.3548584 0.85644531 50.34448242 C-1.47127741 50.30649496 -3.7978092 50.24941849 -6.125 50.1875 C-7.70861328 50.16042969 -7.70861328 50.16042969 -9.32421875 50.1328125 C-13.38921855 49.92115861 -16.31363706 49.45986962 -19.625 47 C-25.22930865 40.69515276 -24.45969784 33.22790362 -24.4375 25.25 C-24.45361328 24.09564453 -24.46972656 22.94128906 -24.48632812 21.75195312 C-24.49065747 14.20590572 -24.08468986 8.81550693 -19.1875 2.8125 C-13.9244047 -1.33418114 -6.34600633 0.0034155 0 0 Z " fill="#D14545" transform="translate(225.125,61.8125)"/>
<path d="M0 0 C0.68146088 -0.00095673 1.36292175 -0.00191345 2.06503296 -0.00289917 C3.50234062 -0.00357865 4.93965138 -0.00174054 6.37695312 0.00244141 C8.58470478 0.0078095 10.79225453 0.0024802 13 -0.00390625 C14.39583378 -0.00324575 15.79166744 -0.00196517 17.1875 0 C18.46189941 0.00112793 19.73629883 0.00225586 21.04931641 0.00341797 C23.9609375 0.1328125 23.9609375 0.1328125 24.9609375 1.1328125 C25.0588432 2.63019374 25.09068614 4.13224142 25.0859375 5.6328125 C25.08980469 6.85484375 25.08980469 6.85484375 25.09375 8.1015625 C24.9609375 10.1328125 24.9609375 10.1328125 23.9609375 11.1328125 C22.03426243 11.22029457 20.10441889 11.23978584 18.17578125 11.23046875 C17.00595703 11.22724609 15.83613281 11.22402344 14.63085938 11.22070312 C13.39916016 11.21232422 12.16746094 11.20394531 10.8984375 11.1953125 C9.04508789 11.18854492 9.04508789 11.18854492 7.15429688 11.18164062 C4.08979633 11.16980858 1.02539029 11.15332423 -2.0390625 11.1328125 C-1.7090625 13.1128125 -1.3790625 15.0928125 -1.0390625 17.1328125 C-0.2869751 17.15786865 0.4651123 17.1829248 1.23999023 17.20874023 C4.62632946 17.32431764 8.01236363 17.44721595 11.3984375 17.5703125 C12.58244141 17.60962891 13.76644531 17.64894531 14.98632812 17.68945312 C16.11103516 17.73134766 17.23574219 17.77324219 18.39453125 17.81640625 C19.43665771 17.85306396 20.47878418 17.88972168 21.55249023 17.92749023 C23.9609375 18.1328125 23.9609375 18.1328125 24.9609375 19.1328125 C25.03320252 20.98568752 25.0447497 22.84115128 25.0234375 24.6953125 C25.01441406 25.70722656 25.00539063 26.71914062 24.99609375 27.76171875 C24.98449219 28.54417969 24.97289062 29.32664062 24.9609375 30.1328125 C14.91684822 31.51820413 2.56058143 33.20153575 -7.0390625 29.1328125 C-11.73824712 24.91559554 -12.84470951 19.95604541 -13.26171875 13.8984375 C-13.49528354 4.75894577 -13.49528354 4.75894577 -11.70703125 2.3046875 C-7.99722099 -0.30173657 -4.37860709 0.00386852 0 0 Z " fill="#D24545" transform="translate(433.0390625,80.8671875)"/>
<path d="M0 0 C1.09445938 0.00212242 1.09445938 0.00212242 2.21102905 0.00428772 C4.54437335 0.00989094 6.87762214 0.0224439 9.2109375 0.03515625 C10.79166528 0.04017084 12.37239457 0.04473382 13.953125 0.04882812 C17.83076604 0.05986141 21.70833557 0.07712814 25.5859375 0.09765625 C26.96718768 2.86015661 26.77673056 5.04496724 26.5859375 8.09765625 C24.5859375 10.09765625 24.5859375 10.09765625 21.97216797 10.32470703 C20.89338379 10.3142334 19.81459961 10.30375977 18.703125 10.29296875 C17.53652344 10.28652344 16.36992188 10.28007813 15.16796875 10.2734375 C13.94464844 10.25667969 12.72132812 10.23992187 11.4609375 10.22265625 C10.22988281 10.21363281 8.99882813 10.20460938 7.73046875 10.1953125 C4.68209935 10.17168173 1.63411368 10.13873679 -1.4140625 10.09765625 C-0.7540625 12.07765625 -0.0940625 14.05765625 0.5859375 16.09765625 C1.66077393 16.12738525 1.66077393 16.12738525 2.75732422 16.15771484 C5.9922438 16.25275144 9.22649844 16.36251644 12.4609375 16.47265625 C14.15283203 16.5190625 14.15283203 16.5190625 15.87890625 16.56640625 C17.49345703 16.62441406 17.49345703 16.62441406 19.140625 16.68359375 C20.13562012 16.71501465 21.13061523 16.74643555 22.15576172 16.77880859 C24.5859375 17.09765625 24.5859375 17.09765625 26.5859375 19.09765625 C26.78125 21.26171875 26.78125 21.26171875 26.7109375 23.72265625 C26.69289062 24.53992188 26.67484375 25.3571875 26.65625 26.19921875 C26.63304687 26.82570313 26.60984375 27.4521875 26.5859375 28.09765625 C20.77007913 30.66699094 15.29233805 30.25512201 9.0859375 29.97265625 C8.06628906 29.94945313 7.04664062 29.92625 5.99609375 29.90234375 C-0.04458473 29.65097611 -3.8072499 29.11814725 -8.4140625 25.09765625 C-12.21936302 19.66151265 -12.03675008 11.49339648 -11.4140625 5.09765625 C-9.12189034 -0.69840903 -5.6377339 -0.04089593 0 0 Z " fill="#D34343" transform="translate(73.4140625,81.90234375)"/>
<path d="M0 0 C1.33278992 0.00303635 1.33278992 0.00303635 2.69250488 0.00613403 C3.5987561 0.00517731 4.50500732 0.00422058 5.4387207 0.00323486 C7.35876535 0.002553 9.27881229 0.00440771 11.19885254 0.00857544 C14.14861192 0.01392361 17.09821902 0.00863066 20.04797363 0.00222778 C21.90865105 0.00288856 23.76932838 0.00416972 25.63000488 0.00613403 C26.51853149 0.0041098 27.40705811 0.00208557 28.32250977 0 C34.546305 0.02399665 34.546305 0.02399665 35.66125488 1.13894653 C35.80318826 4.14225671 35.70361867 7.13111787 35.66125488 10.13894653 C30.38125488 10.13894653 25.10125488 10.13894653 19.66125488 10.13894653 C19.66125488 22.67894653 19.66125488 35.21894653 19.66125488 48.13894653 C13.66125488 50.13894653 13.66125488 50.13894653 9.66125488 49.13894653 C9.33125488 36.59894653 9.00125488 24.05894653 8.66125488 11.13894653 C3.71125488 10.80894653 -1.23874512 10.47894653 -6.33874512 10.13894653 C-7.33874512 9.13894653 -7.33874512 9.13894653 -7.47155762 7.32644653 C-7.46897949 6.60457153 -7.46640137 5.88269653 -7.46374512 5.13894653 C-7.46632324 4.41707153 -7.46890137 3.69519653 -7.47155762 2.95144653 C-7.15865691 -1.31872776 -3.44762434 0.01329276 0 0 Z " fill="#D14444" transform="translate(528.3387451171875,61.861053466796875)"/>
<path d="M0 0 C2.60115556 -0.29201724 4.96091152 -0.3962335 7.5625 -0.36328125 C8.30959229 -0.36377975 9.05668457 -0.36427826 9.82641602 -0.36479187 C11.40676532 -0.36245023 12.98711827 -0.35271631 14.56738281 -0.33618164 C16.99057251 -0.31259178 19.41266222 -0.3156191 21.8359375 -0.32226562 C23.36979825 -0.31668886 24.90365435 -0.30957899 26.4375 -0.30078125 C27.52816772 -0.30214836 27.52816772 -0.30214836 28.64086914 -0.30354309 C33.76897017 -0.23102983 33.76897017 -0.23102983 36 2 C36.33870968 8.32258065 36.33870968 8.32258065 35 11 C30.21282458 11.04943465 25.42579773 11.08573582 20.63842773 11.10986328 C19.00982068 11.11992142 17.38123168 11.13356958 15.75268555 11.15087891 C13.41190128 11.17513574 11.07135576 11.18648483 8.73046875 11.1953125 C7.63813179 11.21079636 7.63813179 11.21079636 6.52372742 11.22659302 C2.78724931 11.22742249 1.19324944 11.12883296 -2 9 C-2.43132515 4.94554358 -2.30019361 3.45029042 0 0 Z " fill="#CF4343" transform="translate(64,62)"/>
<path d="M0 0 C0.77915771 0.00202423 1.55831543 0.00404846 2.36108398 0.00613403 C3.15635498 0.00517731 3.95162598 0.00422058 4.77099609 0.00323486 C6.45564859 0.0025531 8.1403037 0.00440711 9.82495117 0.00857544 C12.41257595 0.01392378 15.00002714 0.00863034 17.58764648 0.00222778 C19.22045937 0.00288857 20.85327215 0.00416973 22.48608398 0.00613403 C23.2652417 0.0041098 24.04439941 0.00208557 24.84716797 0 C30.30863294 0.02399549 30.30863294 0.02399549 31.42358398 1.13894653 C31.49538362 2.65822691 31.50750406 4.18062135 31.48608398 5.70144653 C31.47706055 6.5277356 31.46803711 7.35402466 31.45874023 8.20535278 C31.44713867 8.84343872 31.43553711 9.48152466 31.42358398 10.13894653 C26.17252956 10.16359581 20.92150853 10.18178221 15.67041016 10.19387817 C13.88264378 10.19891872 12.09488154 10.20575107 10.30712891 10.21438599 C7.7430723 10.22646384 5.17907001 10.23217748 2.61499023 10.23660278 C1.40873741 10.24434471 1.40873741 10.24434471 0.17811584 10.25224304 C-1.74043316 10.25243868 -3.6588697 10.20096636 -5.57641602 10.13894653 C-6.57641602 9.13894653 -6.57641602 9.13894653 -6.70922852 7.32644653 C-6.70665039 6.60457153 -6.70407227 5.88269653 -6.70141602 5.13894653 C-6.70399414 4.41707153 -6.70657227 3.69519653 -6.70922852 2.95144653 C-6.41408691 -1.0763683 -3.33269502 0.01464253 0 0 Z " fill="#D94242" transform="translate(426.576416015625,61.861053466796875)"/>
<path d="M0 0 C0.99 0.33 1.98 0.66 3 1 C2.34 1 1.68 1 1 1 C0.97113463 5.31248609 0.95324745 9.62494762 0.9375 13.9375 C0.92912109 15.16919922 0.92074219 16.40089844 0.91210938 17.66992188 C0.90888672 18.83974609 0.90566406 20.00957031 0.90234375 21.21484375 C0.89710693 22.29886475 0.89187012 23.38288574 0.88647461 24.49975586 C0.71573103 26.94049948 0.71573103 26.94049948 2 28 C3.56172745 28.08685603 5.12729344 28.10702219 6.69140625 28.09765625 C7.63564453 28.09443359 8.57988281 28.09121094 9.55273438 28.08789062 C11.04256836 28.07532227 11.04256836 28.07532227 12.5625 28.0625 C13.55958984 28.05798828 14.55667969 28.05347656 15.58398438 28.04882812 C18.05604849 28.03700007 20.52799518 28.02051849 23 28 C23.33 26.68 23.66 25.36 24 24 C24.04254356 25.99954746 24.04080783 28.00041636 24 30 C23 31 23 31 20.05859375 31.09765625 C18.86363281 31.08605469 17.66867187 31.07445313 16.4375 31.0625 C14.64119141 31.04896484 14.64119141 31.04896484 12.80859375 31.03515625 C11.88175781 31.02355469 10.95492188 31.01195313 10 31 C9.34 33.31 8.68 35.62 8 38 C12.62 37.67 17.24 37.34 22 37 C21.67 36.01 21.34 35.02 21 34 C21.66 34 22.32 34 23 34 C23.66 35.65 24.32 37.3 25 39 C20.60429206 39.0872253 16.20880729 39.14046869 11.8125 39.1875 C9.94368164 39.22520508 9.94368164 39.22520508 8.03710938 39.26367188 C6.83505859 39.27333984 5.63300781 39.28300781 4.39453125 39.29296875 C2.73707886 39.31653442 2.73707886 39.31653442 1.04614258 39.34057617 C-2.40982638 38.95417907 -4.23162944 38.07139112 -7 36 C-11.23410912 29.45136703 -10.33616719 22.11403088 -10.1875 14.5625 C-10.17396484 13.25861328 -10.16042969 11.95472656 -10.14648438 10.61132812 C-10.11127334 7.40712378 -10.06202094 4.20377895 -10 1 C-9.34 1 -8.68 1 -8 1 C-7.20820731 4.47188625 -6.89040592 7.63774719 -6.9375 11.1953125 C-6.94523438 12.15824219 -6.95296875 13.12117188 -6.9609375 14.11328125 C-6.97382813 15.10714844 -6.98671875 16.10101563 -7 17.125 C-7.02550471 19.10671622 -7.04653907 21.08849644 -7.0625 23.0703125 C-7.07410156 23.94445801 -7.08570313 24.81860352 -7.09765625 25.71923828 C-7.09777075 28.16561331 -7.09777075 28.16561331 -6 31 C-3.69 31.33 -1.38 31.66 1 32 C0.67475342 31.46391113 0.34950684 30.92782227 0.0144043 30.37548828 C-1.24212893 27.43299289 -1.24290899 25.18810967 -1.23046875 21.9921875 C-1.22853516 20.84105469 -1.22660156 19.68992187 -1.22460938 18.50390625 C-1.21236328 17.30636719 -1.20011719 16.10882813 -1.1875 14.875 C-1.18685547 13.66972656 -1.18621094 12.46445313 -1.18554688 11.22265625 C-1.14038584 2.28077168 -1.14038584 2.28077168 0 0 Z " fill="#CF4746" transform="translate(262,72)"/>
<path d="M0 0 C1.051875 0.16371094 2.10375 0.32742187 3.1875 0.49609375 C9.11280857 1.23675732 15.03849689 1.10688691 21 1.0625 C22.15628906 1.05798828 23.31257813 1.05347656 24.50390625 1.04882812 C27.33599225 1.03712529 30.16796811 1.02072996 33 1 C33 3.97 33 6.94 33 10 C25.66258031 12.3479743 18.65606218 12.19355213 11 12 C10.87625 11.360625 10.7525 10.72125 10.625 10.0625 C10.41875 9.381875 10.2125 8.70125 10 8 C9.34 7.67 8.68 7.34 8 7 C7.360625 6.62875 6.72125 6.2575 6.0625 5.875 C3.86905405 4.67608107 3.86905405 4.67608107 1 6 C0.67 4.02 0.34 2.04 0 0 Z " fill="#DA3F3F" transform="translate(424,100)"/>
<path d="M0 0 C8.91 0 17.82 0 27 0 C27 2.64 27 5.28 27 8 C13.635 8.495 13.635 8.495 0 9 C-0.33 7.35 -0.66 5.7 -1 4 C-1.66 3.34 -2.32 2.68 -3 2 C-2.01 2 -1.02 2 0 2 C0 1.34 0 0.68 0 0 Z " fill="#D94242" transform="translate(480,63)"/>
<path d="M0 0 C1.03318359 -0.020625 2.06636719 -0.04125 3.13085938 -0.0625 C8.70823109 -0.09112025 12.93707867 -0.03224904 17.6875 3.25 C23.24972466 10.31552862 22.86982925 16.40149886 22.875 25.0625 C22.88724609 26.13048828 22.89949219 27.19847656 22.91210938 28.29882812 C22.92271784 34.01678841 22.63371052 38.85753528 20.6875 44.25 C20.3575 44.25 20.0275 44.25 19.6875 44.25 C19.8525 43.13625 20.0175 42.0225 20.1875 40.875 C21.08261815 33.04586804 20.76387758 25.11689054 20.6875 17.25 C18.04011084 15.7893715 16.79301666 15.25 13.6875 15.25 C13.6875 21.19 13.6875 27.13 13.6875 33.25 C13.3575 33.25 13.0275 33.25 12.6875 33.25 C12.62691406 31.98542969 12.56632812 30.72085938 12.50390625 29.41796875 C12.41949096 27.75780129 12.33484345 26.09764563 12.25 24.4375 C12.21068359 23.60412109 12.17136719 22.77074219 12.13085938 21.91210938 C12.08896484 21.10966797 12.04707031 20.30722656 12.00390625 19.48046875 C11.96724854 18.74207764 11.93059082 18.00368652 11.89282227 17.24291992 C11.73907859 15.042505 11.73907859 15.042505 10.6875 12.25 C7.38789859 10.6001993 3.69622116 10.86741639 0.0625 10.6875 C-0.73929687 10.64431641 -1.54109375 10.60113281 -2.3671875 10.55664062 C-4.3487511 10.45048543 -6.33060271 10.34973145 -8.3125 10.25 C-8.3125 9.92 -8.3125 9.59 -8.3125 9.25 C-7.72758789 9.25523682 -7.14267578 9.26047363 -6.54003906 9.26586914 C-3.88087037 9.28670158 -1.22171889 9.29968007 1.4375 9.3125 C2.35789062 9.32087891 3.27828125 9.32925781 4.2265625 9.33789062 C5.11601562 9.34111328 6.00546875 9.34433594 6.921875 9.34765625 C8.14729004 9.35551147 8.14729004 9.35551147 9.39746094 9.36352539 C11.62718135 9.25299021 13.54883755 8.87055567 15.6875 8.25 C15.6875 6.6 15.6875 4.95 15.6875 3.25 C10.50388011 2.09949346 5.54029066 2.02924832 0.25 2 C-0.67876953 1.979375 -1.60753906 1.95875 -2.56445312 1.9375 C-8.02769457 1.90639258 -11.47642422 2.46025106 -16.3125 5.25 C-16.9725 4.92 -17.6325 4.59 -18.3125 4.25 C-12.44634813 -0.40246527 -7.21706208 0.03561783 0 0 Z " fill="#C24647" transform="translate(273.3125,61.75)"/>
<path d="M0 0 C0.87454834 0.00523682 1.74909668 0.01047363 2.65014648 0.01586914 C3.59438477 0.0190918 4.53862305 0.02231445 5.51147461 0.02563477 C6.50469727 0.03401367 7.49791992 0.04239258 8.52124023 0.05102539 C9.51833008 0.05553711 10.51541992 0.06004883 11.54272461 0.06469727 C14.01478872 0.07652532 16.48673541 0.0930069 18.95874023 0.11352539 C18.62874023 3.08352539 18.29874023 6.05352539 17.95874023 9.11352539 C15.39616844 9.14062662 12.83388658 9.1604131 10.27124023 9.17602539 C9.18939453 9.18859375 9.18939453 9.18859375 8.08569336 9.20141602 C4.24318642 9.21896171 0.69234497 9.0487676 -3.04125977 8.11352539 C-2.71125977 7.45352539 -2.38125977 6.79352539 -2.04125977 6.11352539 C-2.36676479 4.44531216 -2.6997204 2.77852982 -3.04125977 1.11352539 C-2.04125977 0.11352539 -2.04125977 0.11352539 0 0 Z " fill="#DB3C3C" transform="translate(217.041259765625,102.886474609375)"/>
<path d="M0 0 C0.721875 0.00257812 1.44375 0.00515625 2.1875 0.0078125 C2.909375 0.00523438 3.63125 0.00265625 4.375 0 C6.1875 0.1328125 6.1875 0.1328125 7.1875 1.1328125 C7.29071416 2.52876551 7.32599396 3.92984268 7.33276367 5.32958984 C7.33914352 6.22076508 7.34552338 7.11194031 7.35209656 8.03012085 C7.35320938 8.99986847 7.3543222 9.96961609 7.35546875 10.96875 C7.35879715 11.95904205 7.36212555 12.94933411 7.36555481 13.96963501 C7.37062888 16.06959568 7.37296299 18.16956445 7.37280273 20.26953125 C7.37498596 23.48711429 7.39312767 26.70435285 7.41210938 29.921875 C7.41504381 31.95833216 7.41702827 33.99479095 7.41796875 36.03125 C7.42515427 36.99694916 7.43233978 37.96264832 7.43974304 38.95761108 C7.43666641 39.85509064 7.43358978 40.75257019 7.43041992 41.67724609 C7.43184494 42.46698822 7.43326996 43.25673035 7.43473816 44.07040405 C7.1875 46.1328125 7.1875 46.1328125 5.1875 49.1328125 C2.4375 49.53125 2.4375 49.53125 -0.8125 49.5078125 C-2.42125 49.51941406 -2.42125 49.51941406 -4.0625 49.53125 C-4.97 49.39976563 -5.8775 49.26828125 -6.8125 49.1328125 C-7.4725 48.1428125 -8.1325 47.1528125 -8.8125 46.1328125 C-8.13703125 46.21660156 -7.4615625 46.30039063 -6.765625 46.38671875 C-5.87359375 46.48855469 -4.9815625 46.59039062 -4.0625 46.6953125 C-3.18078125 46.79972656 -2.2990625 46.90414062 -1.390625 47.01171875 C1.45660983 47.26938321 1.45660983 47.26938321 5.1875 46.1328125 C5.1875 31.6128125 5.1875 17.0928125 5.1875 2.1328125 C3.2075 2.1328125 1.2275 2.1328125 -0.8125 2.1328125 C-1.1425 12.0328125 -1.4725 21.9328125 -1.8125 32.1328125 C-2.1425 32.1328125 -2.4725 32.1328125 -2.8125 32.1328125 C-2.83715504 27.73625077 -2.85533842 23.3397253 -2.86743164 18.94311523 C-2.87247121 17.44636332 -2.87930287 15.94961634 -2.88793945 14.45288086 C-2.90002159 12.30581443 -2.90573191 10.15881288 -2.91015625 8.01171875 C-2.91539307 6.7182251 -2.92062988 5.42473145 -2.92602539 4.09204102 C-2.7768477 0.20347591 -2.7768477 0.20347591 0 0 Z " fill="#BB4C4B" transform="translate(400.8125,61.8671875)"/>
<path d="M0 0 C4.47915328 -0.02886338 8.95828291 -0.04675187 13.4375 -0.0625 C14.71689453 -0.07087891 15.99628906 -0.07925781 17.31445312 -0.08789062 C19.13686523 -0.09272461 19.13686523 -0.09272461 20.99609375 -0.09765625 C22.12200928 -0.10289307 23.2479248 -0.10812988 24.40795898 -0.11352539 C27 0 27 0 28 1 C28 3.97 28 6.94 28 10 C14.635 10.495 14.635 10.495 1 11 C0.67 19.58 0.34 28.16 0 37 C-0.66 37 -1.32 37 -2 37 C-2.05796132 32.89589245 -2.09358313 28.79188984 -2.125 24.6875 C-2.14175781 23.52025391 -2.15851563 22.35300781 -2.17578125 21.15039062 C-2.18222656 20.03212891 -2.18867188 18.91386719 -2.1953125 17.76171875 C-2.20578613 16.73006592 -2.21625977 15.69841309 -2.22705078 14.63549805 C-2 12 -2 12 0 9 C2.61376953 8.65942383 2.61376953 8.65942383 5.8828125 8.70703125 C7.04941406 8.71669922 8.21601563 8.72636719 9.41796875 8.73632812 C10.64128906 8.76146484 11.86460937 8.78660156 13.125 8.8125 C14.35605469 8.82603516 15.58710938 8.83957031 16.85546875 8.85351562 C19.90407843 8.88896457 22.951825 8.93837921 26 9 C26 6.36 26 3.72 26 1 C17.42 1 8.84 1 0 1 C0 0.67 0 0.34 0 0 Z " fill="#B74A4A" transform="translate(481,62)"/>
<path d="M0 0 C0.99 0.33 1.98 0.66 3 1 C2.51298949 8.59064664 1.00236413 15.67059167 -1 23 C-1.33 23 -1.66 23 -2 23 C-2.061875 21.741875 -2.12375 20.48375 -2.1875 19.1875 C-2.62587547 15.58900674 -2.62587547 15.58900674 -5.3125 13.0625 C-7.55178661 12.17720064 -9.63550232 11.43786994 -12 11 C-10.625 9.5 -10.625 9.5 -9 8 C-8.34 8 -7.68 8 -7 8 C-7 7.34 -7 6.68 -7 6 C-5.57421875 4.45703125 -5.57421875 4.45703125 -3.6875 2.8125 C-3.07261719 2.26207031 -2.45773438 1.71164063 -1.82421875 1.14453125 C-1.22222656 0.76683594 -0.62023437 0.38914063 0 0 Z " fill="#D64544" transform="translate(165,43)"/>
<path d="M0 0 C0.77915771 0.00202423 1.55831543 0.00404846 2.36108398 0.00613403 C3.15635498 0.00517731 3.95162598 0.00422058 4.77099609 0.00323486 C6.45564859 0.0025531 8.1403037 0.00440711 9.82495117 0.00857544 C12.41257595 0.01392378 15.00002714 0.00863034 17.58764648 0.00222778 C19.22045937 0.00288857 20.85327215 0.00416973 22.48608398 0.00613403 C23.2652417 0.0041098 24.04439941 0.00208557 24.84716797 0 C30.30863294 0.02399549 30.30863294 0.02399549 31.42358398 1.13894653 C31.49538362 2.65822691 31.50750406 4.18062135 31.48608398 5.70144653 C31.47706055 6.5277356 31.46803711 7.35402466 31.45874023 8.20535278 C31.44713867 8.84343872 31.43553711 9.48152466 31.42358398 10.13894653 C26.17252956 10.16359581 20.92150853 10.18178221 15.67041016 10.19387817 C13.88264378 10.19891872 12.09488154 10.20575107 10.30712891 10.21438599 C7.7430723 10.22646384 5.17907001 10.23217748 2.61499023 10.23660278 C1.40873741 10.24434471 1.40873741 10.24434471 0.17811584 10.25224304 C-1.74043316 10.25243868 -3.6588697 10.20096636 -5.57641602 10.13894653 C-6.57641602 9.13894653 -6.57641602 9.13894653 -6.70922852 7.32644653 C-6.70665039 6.60457153 -6.70407227 5.88269653 -6.70141602 5.13894653 C-6.70399414 4.41707153 -6.70657227 3.69519653 -6.70922852 2.95144653 C-6.41408691 -1.0763683 -3.33269502 0.01464253 0 0 Z M-3.57641602 1.13894653 C-4.83993915 4.40246967 -4.83993915 4.40246967 -4.57641602 9.13894653 C6.97358398 9.13894653 18.52358398 9.13894653 30.42358398 9.13894653 C30.42358398 6.82894653 30.42358398 4.51894653 30.42358398 2.13894653 C29.2885059 0.77682833 29.2885059 0.77682833 26.28076172 1.02542114 C24.88955701 1.02558021 23.49834638 1.03127147 22.10717773 1.04129028 C21.3761232 1.04270523 20.64506866 1.04412018 19.89186096 1.045578 C17.54822766 1.05119245 15.20468859 1.06374732 12.86108398 1.07644653 C11.2757989 1.08145968 9.69051233 1.0860229 8.10522461 1.09011841 C4.21130788 1.10116657 0.31746193 1.11844082 -3.57641602 1.13894653 Z " fill="#BA4748" transform="translate(426.576416015625,61.861053466796875)"/>
<path d="M0 0 C1.32 0 2.64 0 4 0 C4.50833591 1.24663331 5.00631145 2.49749387 5.5 3.75 C5.7784375 4.44609375 6.056875 5.1421875 6.34375 5.859375 C7 8 7 8 7 12 C3.71303767 12.79953138 2.28976808 13.09658936 -1 12 C-3 9 -3 9 -3 6 C-2.34 6 -1.68 6 -1 6 C-0.67 4.02 -0.34 2.04 0 0 Z " fill="#D14042" transform="translate(43,99)"/>
<path d="M0 0 C0.33 0 0.66 0 1 0 C1.04898437 0.72445312 1.09796875 1.44890625 1.1484375 2.1953125 C1.55491658 7.45150753 2.13626763 12.03004701 4 17 C4 17.99 4 18.98 4 20 C5.98 19.34 7.96 18.68 10 18 C12 19.8125 12 19.8125 14 22 C14 22.99 14 23.98 14 25 C10.48787428 25.32670937 8.45315084 25.24238301 5.3125 23.5625 C-0.74274172 16.85263755 -0.39296386 8.60154235 0 0 Z " fill="#C94D4F" transform="translate(420,86)"/>
<path d="M0 0 C0.68146088 -0.00095673 1.36292175 -0.00191345 2.06503296 -0.00289917 C3.50234062 -0.00357865 4.93965138 -0.00174054 6.37695312 0.00244141 C8.58470478 0.0078095 10.79225453 0.0024802 13 -0.00390625 C14.39583378 -0.00324575 15.79166744 -0.00196517 17.1875 0 C18.46189941 0.00112793 19.73629883 0.00225586 21.04931641 0.00341797 C23.9609375 0.1328125 23.9609375 0.1328125 24.9609375 1.1328125 C25.03273714 2.65209288 25.04485757 4.17448732 25.0234375 5.6953125 C25.01441406 6.52160156 25.00539063 7.34789063 24.99609375 8.19921875 C24.98449219 8.83730469 24.97289062 9.47539063 24.9609375 10.1328125 C24.6309375 10.1328125 24.3009375 10.1328125 23.9609375 10.1328125 C23.4659375 6.6678125 23.4659375 6.6678125 22.9609375 3.1328125 C18.60718223 2.93481249 14.25293119 2.75128427 9.8984375 2.5703125 C8.05475586 2.48620117 8.05475586 2.48620117 6.17382812 2.40039062 C0.2936456 2.1626474 -5.25509325 1.97258093 -11.0390625 3.1328125 C-8.95646326 -1.03238599 -4.08489622 0.00360902 0 0 Z " fill="#BA4A4B" transform="translate(433.0390625,80.8671875)"/>
<path d="M0 0 C0.33 0 0.66 0 1 0 C1.02527124 6.24795675 1.04283344 12.49590041 1.05493164 18.74389648 C1.05997298 20.87118014 1.06680591 22.99846031 1.07543945 25.12573242 C1.08751379 28.17627826 1.09323014 31.22677845 1.09765625 34.27734375 C1.10281754 35.23462875 1.10797882 36.19191376 1.11329651 37.1782074 C1.11337204 38.05904495 1.11344757 38.93988251 1.11352539 39.84741211 C1.115746 40.62684677 1.11796661 41.40628143 1.12025452 42.20933533 C1 44 1 44 0 45 C-1.97513667 45.15126231 -3.95678135 45.22173766 -5.9375 45.25 C-7.01902344 45.27578125 -8.10054688 45.3015625 -9.21484375 45.328125 C-10.13394531 45.21984375 -11.05304688 45.1115625 -12 45 C-12.66 44.01 -13.32 43.02 -14 42 C-13.32453125 42.08378906 -12.6490625 42.16757813 -11.953125 42.25390625 C-11.06109375 42.35574219 -10.1690625 42.45757812 -9.25 42.5625 C-8.36828125 42.66691406 -7.4865625 42.77132812 -6.578125 42.87890625 C-3.73089017 43.13657071 -3.73089017 43.13657071 0 42 C0 28.14 0 14.28 0 0 Z " fill="#DC494A" transform="translate(406,66)"/>
<path d="M0 0 C2.32452624 3.48678936 2.29773734 5.06967571 2.4140625 9.19921875 C2.45273438 10.40771484 2.49140625 11.61621094 2.53125 12.86132812 C2.57765625 14.7552832 2.57765625 14.7552832 2.625 16.6875 C2.66367188 17.96173828 2.70234375 19.23597656 2.7421875 20.54882812 C2.83657686 23.69907292 2.9221583 26.84930991 3 30 C3.66 30 4.32 30 5 30 C5.33 31.65 5.66 33.3 6 35 C0.6340486 30.0468141 0.6340486 30.0468141 0 26 C-0.08091092 23.97531289 -0.10758899 21.94815381 -0.09765625 19.921875 C-0.09443359 18.76171875 -0.09121094 17.6015625 -0.08789062 16.40625 C-0.07951172 15.1996875 -0.07113281 13.993125 -0.0625 12.75 C-0.05798828 11.52796875 -0.05347656 10.3059375 -0.04882812 9.046875 C-0.03704815 6.03120054 -0.02059853 3.01562502 0 0 Z " fill="#C45559" transform="translate(201,74)"/>
<path d="M0 0 C0.99 0.33 1.98 0.66 3 1 C2.34 1 1.68 1 1 1 C0.97113463 5.31248609 0.95324745 9.62494762 0.9375 13.9375 C0.92912109 15.16919922 0.92074219 16.40089844 0.91210938 17.66992188 C0.90888672 18.83974609 0.90566406 20.00957031 0.90234375 21.21484375 C0.89710693 22.29886475 0.89187012 23.38288574 0.88647461 24.49975586 C0.71573103 26.94049948 0.71573103 26.94049948 2 28 C3.56172745 28.08685603 5.12729344 28.10702219 6.69140625 28.09765625 C7.63564453 28.09443359 8.57988281 28.09121094 9.55273438 28.08789062 C11.04256836 28.07532227 11.04256836 28.07532227 12.5625 28.0625 C13.55958984 28.05798828 14.55667969 28.05347656 15.58398438 28.04882812 C18.05604849 28.03700007 20.52799518 28.02051849 23 28 C23.33 26.68 23.66 25.36 24 24 C24 25.98 24 27.96 24 30 C20.23356165 31.88321918 15.62471686 30.88638001 11.5 30.6875 C10.52417969 30.65205078 9.54835938 30.61660156 8.54296875 30.58007812 C7.61097656 30.53689453 6.67898438 30.49371094 5.71875 30.44921875 C4.86216797 30.41143311 4.00558594 30.37364746 3.12304688 30.3347168 C1 30 1 30 -1 28 C-1.24291992 25.41796875 -1.24291992 25.41796875 -1.23046875 22.1875 C-1.22853516 21.02992187 -1.22660156 19.87234375 -1.22460938 18.6796875 C-1.21236328 17.46539062 -1.20011719 16.25109375 -1.1875 15 C-1.18685547 13.78570312 -1.18621094 12.57140625 -1.18554688 11.3203125 C-1.14024712 2.28049424 -1.14024712 2.28049424 0 0 Z " fill="#B94A4C" transform="translate(262,72)"/>
<path d="M0 0 C0.72822464 0.0028299 1.45644928 0.00565979 2.20674133 0.00857544 C4.52992262 0.01975993 6.85271672 0.04486084 9.17578125 0.0703125 C10.75194755 0.08034456 12.3281199 0.08947002 13.90429688 0.09765625 C17.76577392 0.11969354 21.62696196 0.15421109 25.48828125 0.1953125 C25.15828125 0.8553125 24.82828125 1.5153125 24.48828125 2.1953125 C23.59520264 2.16912842 22.70212402 2.14294434 21.78198242 2.1159668 C18.46638894 2.03071916 15.15196006 1.96805662 11.83569336 1.9206543 C10.40093611 1.89551726 8.96630684 1.86140142 7.53198242 1.81811523 C5.46891755 1.75741585 3.4075451 1.72909897 1.34375 1.70703125 C0.10262451 1.68084717 -1.13850098 1.65466309 -2.41723633 1.62768555 C-5.70458735 1.85765922 -5.70458735 1.85765922 -7.25268555 4.66333008 C-7.6681665 5.49888428 -8.08364746 6.33443848 -8.51171875 7.1953125 C-9.50171875 7.5253125 -10.49171875 7.8553125 -11.51171875 8.1953125 C-11.19921875 5.3203125 -11.19921875 5.3203125 -10.51171875 2.1953125 C-6.86867011 -0.23338659 -4.20449536 -0.06144425 0 0 Z " fill="#B74446" transform="translate(73.51171875,81.8046875)"/>
<path d="M0 0 C0.66 0 1.32 0 2 0 C1.76228882 0.81549316 1.76228882 0.81549316 1.51977539 1.64746094 C0.92399019 4.34402563 0.78635695 6.88069895 0.68359375 9.640625 C0.64169922 10.71054688 0.59980469 11.78046875 0.55664062 12.8828125 C0.51732422 13.99398437 0.47800781 15.10515625 0.4375 16.25 C0.39431641 17.37664062 0.35113281 18.50328125 0.30664062 19.6640625 C0.20067985 22.44258954 0.09860858 25.22120391 0 28 C-0.66 28 -1.32 28 -2 28 C-2.05796132 23.89589245 -2.09358313 19.79188984 -2.125 15.6875 C-2.14175781 14.52025391 -2.15851563 13.35300781 -2.17578125 12.15039062 C-2.18222656 11.03212891 -2.18867188 9.91386719 -2.1953125 8.76171875 C-2.20578613 7.73006592 -2.21625977 6.69841309 -2.22705078 5.63549805 C-2 3 -2 3 0 0 Z " fill="#C14D4E" transform="translate(481,71)"/>
<path d="M0 0 C0 4 0 4 -1 7 C-1.99 6.67 -2.98 6.34 -4 6 C-4 7.65 -4 9.3 -4 11 C-4.99 11 -5.98 11 -7 11 C-7 12.32 -7 13.64 -7 15 C-7.66 15 -8.32 15 -9 15 C-8.74610842 9.17318823 -8.38883987 5.25584472 -4 1 C-2 0 -2 0 0 0 Z " fill="#CC4747" transform="translate(480,63)"/>
<path d="M0 0 C0.99 0.495 0.99 0.495 2 1 C3.87329756 1.14161509 5.75107465 1.22604988 7.62890625 1.28125 C8.74587891 1.31863281 9.86285156 1.35601562 11.01367188 1.39453125 C13.3834601 1.46495974 15.75325178 1.53527186 18.12304688 1.60546875 C19.79657227 1.66154297 19.79657227 1.66154297 21.50390625 1.71875 C22.53330322 1.74904297 23.5627002 1.77933594 24.62329102 1.81054688 C27 2 27 2 28 3 C28.07179964 4.51928038 28.08392007 6.04167482 28.0625 7.5625 C28.05347656 8.38878906 28.04445313 9.21507813 28.03515625 10.06640625 C28.02355469 10.70449219 28.01195312 11.34257813 28 12 C27.01 11.67 26.02 11.34 25 11 C25.33 8.69 25.66 6.38 26 4 C17.75 3.67 9.5 3.34 1 3 C0.67 2.01 0.34 1.02 0 0 Z " fill="#AE504D" transform="translate(481,99)"/>
<path d="M0 0 C0 3.20395416 -0.74335022 5.09399739 -2 8 C-1.0925 8.2475 -0.185 8.495 0.75 8.75 C4.18241801 10.07016077 5.81828523 11.06307628 8 14 C8.25 16.75 8.25 16.75 8 19 C7.13375 18.2575 6.2675 17.515 5.375 16.75 C3.15709532 14.86478102 1.19144329 13.53582855 -1.375 12.0625 C-4 10 -4 10 -4.625 7 C-3.88946638 3.46943863 -2.75999237 2.2424938 0 0 Z " fill="#C34B4D" transform="translate(131,75)"/>
<path d="M0 0 C1.49997444 2.94952958 2.80023567 5.91489173 4 9 C5.32 9 6.64 9 8 9 C9.32 9 10.64 9 12 9 C11.01 9.495 11.01 9.495 10 10 C10 10.66 10 11.32 10 12 C10.99 12.33 11.98 12.66 13 13 C12.67 13.66 12.34 14.32 12 15 C8.28509765 14.74082077 6.24971156 14.17757266 3.1875 12 C0.3161043 8.0620859 0.11441453 4.77420619 0 0 Z " fill="#C74C4E" transform="translate(471,96)"/>
<path d="M0 0 C1.67542976 0.28604898 3.34385343 0.61781233 5 1 C5.33 1.99 5.66 2.98 6 4 C4.8125 6.1875 4.8125 6.1875 3 8 C1.68 8 0.36 8 -1 8 C-1 7.34 -1 6.68 -1 6 C-1.66 6 -2.32 6 -3 6 C-1.125 1.125 -1.125 1.125 0 0 Z " fill="#DB3D3E" transform="translate(6,104)"/>
<path d="M0 0 C2.27034075 2.94050157 4.30412051 5.96058433 6.25 9.125 C7.06210937 10.42824219 7.06210937 10.42824219 7.890625 11.7578125 C8.25671875 12.49773437 8.6228125 13.23765625 9 14 C8.67 14.66 8.34 15.32 8 16 C7.01 15.01 6.02 14.02 5 13 C4.01 13.495 4.01 13.495 3 14 C3 12.68 3 11.36 3 10 C2.01 10 1.02 10 0 10 C0.185625 9.278125 0.37125 8.55625 0.5625 7.8125 C1.01995307 4.87173027 0.73516357 2.85896942 0 0 Z " fill="#C14747" transform="translate(329,75)"/>
<path d="M0 0 C0.33 0 0.66 0 1 0 C1.375 2.10546875 1.375 2.10546875 1 5 C-0.73910098 7.3769223 -2.84477444 9.31503307 -5 11.3125 C-5.57234375 11.86228516 -6.1446875 12.41207031 -6.734375 12.97851562 C-8.14523949 14.3305941 -9.57120512 15.66688335 -11 17 C-11.33 15.68 -11.66 14.36 -12 13 C-11.01 13 -10.02 13 -9 13 C-9 12.34 -9 11.68 -9 11 C-8.34 11 -7.68 11 -7 11 C-7 10.01 -7 9.02 -7 8 C-6.21625 7.54625 -5.4325 7.0925 -4.625 6.625 C-1.55039988 4.72167612 -1.0093586 3.39511528 0 0 Z " fill="#C15053" transform="translate(172,90)"/>
<path d="M0 0 C1.05767578 0.49113281 1.05767578 0.49113281 2.13671875 0.9921875 C5.23867167 2.08400722 7.54006053 2.20385396 10.8125 2.125 C11.78832031 2.10695313 12.76414062 2.08890625 13.76953125 2.0703125 C14.50558594 2.04710938 15.24164063 2.02390625 16 2 C15.67 2.99 15.34 3.98 15 5 C13.06318839 5.08107583 11.1254066 5.13922475 9.1875 5.1875 C8.10855469 5.22230469 7.02960938 5.25710937 5.91796875 5.29296875 C3 5 3 5 1.11328125 3.61328125 C0 2 0 2 0 0 Z " fill="#BC4D4F" transform="translate(335,106)"/>
<path d="M0 0 C0 0.66 0 1.32 0 2 C-1.32 2 -2.64 2 -4 2 C-4.33 2.99 -4.66 3.98 -5 5 C-5.66 5 -6.32 5 -7 5 C-7.66 7.97 -8.32 10.94 -9 14 C-9.33 14 -9.66 14 -10 14 C-10.29397316 9.00245633 -10.0979156 6.01581652 -7 2 C-4 0 -4 0 0 0 Z " fill="#C34A4C" transform="translate(212,63)"/>
<path d="M0 0 C0.33 0 0.66 0 1 0 C1 1.98 1 3.96 1 6 C-1.45250093 7.22625047 -2.84310435 7.03425355 -5.5703125 6.87890625 C-6.91416016 6.80639648 -6.91416016 6.80639648 -8.28515625 6.73242188 C-9.22230469 6.67634766 -10.15945313 6.62027344 -11.125 6.5625 C-12.54232422 6.48418945 -12.54232422 6.48418945 -13.98828125 6.40429688 C-16.3258419 6.27443239 -18.66299545 6.1394613 -21 6 C-21 5.67 -21 5.34 -21 5 C-10.605 4.505 -10.605 4.505 0 4 C0 2.68 0 1.36 0 0 Z " fill="#AB4E4D" transform="translate(285,96)"/>
<path d="M0 0 C3.3 0 6.6 0 10 0 C10 2.97 10 5.94 10 9 C9.01 8.67 8.02 8.34 7 8 C7.33 5.69 7.66 3.38 8 1 C5.36 1 2.72 1 0 1 C0 0.67 0 0.34 0 0 Z " fill="#BB4C4D" transform="translate(499,102)"/>
<path d="M0 0 C0.99 0.33 1.98 0.66 3 1 C2.67 4.3 2.34 7.6 2 11 C1.67 11 1.34 11 1 11 C1 8.69 1 6.38 1 4 C-0.98 4.66 -2.96 5.32 -5 6 C-3.35 4.02 -1.7 2.04 0 0 Z " fill="#BD4F54" transform="translate(165,43)"/>
<path d="M0 0 C1.32 0.33 2.64 0.66 4 1 C0.7 4.3 -2.6 7.6 -6 11 C-6 7.47967572 -5.29648649 6.5614657 -3 4 C-2.34 4 -1.68 4 -1 4 C-0.67 2.68 -0.34 1.36 0 0 Z " fill="#C85154" transform="translate(149,113)"/>
<path d="M0 0 C0.7940625 -0.01417969 1.588125 -0.02835938 2.40625 -0.04296875 C4.5 0.1875 4.5 0.1875 6.5 2.1875 C5.406875 2.14625 4.31375 2.105 3.1875 2.0625 C-0.58892229 1.86675334 -0.58892229 1.86675334 -3.5 4.1875 C-4.82 4.1875 -6.14 4.1875 -7.5 4.1875 C-7.17 3.1975 -6.84 2.2075 -6.5 1.1875 C-4.14653604 0.01076802 -2.6193967 0.02126134 0 0 Z " fill="#BC4745" transform="translate(372.5,61.8125)"/>
<path d="M0 0 C0 3 0 3 -1.49609375 4.71875 C-2.13675781 5.3065625 -2.77742187 5.894375 -3.4375 6.5 C-5.92139791 8.78819687 -6.90880131 9.72640392 -8 13 C-8.99 13 -9.98 13 -11 13 C-9.46356148 9.31930113 -7.21849055 7.01224796 -4.375 4.25 C-3.55773437 3.45078125 -2.74046875 2.6515625 -1.8984375 1.828125 C-0.95871094 0.92320313 -0.95871094 0.92320313 0 0 Z " fill="#BF4A4B" transform="translate(152,55)"/>
<path d="M0 0 C0.66386719 0.0721875 1.32773437 0.144375 2.01171875 0.21875 C3.33623047 0.35796875 3.33623047 0.35796875 4.6875 0.5 C5.99267578 0.63921875 5.99267578 0.63921875 7.32421875 0.78125 C9.89723339 0.99159864 12.41984364 1.03719144 15 1 C14.67 1.66 14.34 2.32 14 3 C12.04233719 3.08082094 10.08373272 3.13910778 8.125 3.1875 C6.48917969 3.23970703 6.48917969 3.23970703 4.8203125 3.29296875 C3.88960938 3.19628906 2.95890625 3.09960938 2 3 C1.34 2.01 0.68 1.02 0 0 Z " fill="#BB5151" transform="translate(392,108)"/>
<path d="M0 0 C0.66 0 1.32 0 2 0 C3.0257259 4.41062136 3.03684712 6.92630576 1 11 C-0.89213369 8.61426621 -2.02391783 6.92824652 -3 4 C-2.34 4 -1.68 4 -1 4 C-0.67 2.68 -0.34 1.36 0 0 Z " fill="#C94746" transform="translate(386,88)"/>
<path d="M0 0 C2.0625 0.4375 2.0625 0.4375 4 1 C1.375 5.875 1.375 5.875 -2 7 C-1.125 1.125 -1.125 1.125 0 0 Z " fill="#C04B4B" transform="translate(64,83)"/>
<path d="M0 0 C0 4 0 4 -1 7 C-1.33 6.01 -1.66 5.02 -2 4 C-3.65 4.66 -5.3 5.32 -7 6 C-5.52522876 2.59668175 -4.14385429 0 0 0 Z " fill="#C04A4A" transform="translate(480,63)"/>
<path d="M0 0 C0.33 0 0.66 0 1 0 C1 1.98 1 3.96 1 6 C-1.97 5.505 -1.97 5.505 -5 5 C-5 4.34 -5 3.68 -5 3 C-3.35 2.67 -1.7 2.34 0 2 C0 1.34 0 0.68 0 0 Z " fill="#D53637" transform="translate(47,106)"/>
<path d="M0 0 C1.45880109 0.14107747 2.91703551 0.28802415 4.375 0.4375 C5.59316406 0.55931641 5.59316406 0.55931641 6.8359375 0.68359375 C9 1 9 1 11 2 C11 2.66 11 3.32 11 4 C6.35108046 4.32434322 3.77593392 3.776422 0 1 C0 0.67 0 0.34 0 0 Z " fill="#C14D4D" transform="translate(66,107)"/>
<path d="M0 0 C8.19256018 -0.63019694 8.19256018 -0.63019694 11.5625 2 C12.036875 2.66 12.51125 3.32 13 4 C12.67 4.66 12.34 5.32 12 6 C11.505 5.360625 11.01 4.72125 10.5 4.0625 C7.01193613 1.18484731 4.46538959 1.29769264 0 1 C0 0.67 0 0.34 0 0 Z " fill="#B34546" transform="translate(312,62)"/>
<path d="M0 0 C0.66 0 1.32 0 2 0 C1.67 2.97 1.34 5.94 1 9 C0.34 9 -0.32 9 -1 9 C-0.67 6.03 -0.34 3.06 0 0 Z " fill="#C85353" transform="translate(160,71)"/>
<path d="M0 0 C1.45606519 4.52092968 0.27032841 7.51648796 -1 12 C-1.33 12 -1.66 12 -2 12 C-2.05422947 10.5629191 -2.09289723 9.12524538 -2.125 7.6875 C-2.14820313 6.88699219 -2.17140625 6.08648437 -2.1953125 5.26171875 C-2 3 -2 3 0 0 Z " fill="#BF5653" transform="translate(165,54)"/>
<path d="M0 0 C4.42857143 5.14285714 4.42857143 5.14285714 5 9 C4.34 9 3.68 9 3 9 C3 8.34 3 7.68 3 7 C2.34 7 1.68 7 1 7 C0.67 4.69 0.34 2.38 0 0 Z " fill="#BF4E4C" transform="translate(392,87)"/>
<path d="M0 0 C0 1.98 0 3.96 0 6 C-1.32 6 -2.64 6 -4 6 C-4 3 -4 3 -2.5625 1.3125 C-1 0 -1 0 0 0 Z " fill="#C33E3F" transform="translate(100,84)"/>
<path d="M0 0 C1.32 1.65 2.64 3.3 4 5 C3.67 5.66 3.34 6.32 3 7 C2.01 7 1.02 7 0 7 C-1.04449911 3.86650268 -0.93423645 3.01031744 0 0 Z " fill="#C6494A" transform="translate(388,80)"/>
<path d="M0 0 C0.66 0 1.32 0 2 0 C1.01 3.3 0.02 6.6 -1 10 C-3 6 -3 6 -3 4 C-2.01 4 -1.02 4 0 4 C0 2.68 0 1.36 0 0 Z " fill="#BA4D43" transform="translate(23,78)"/>
<path d="M0 0 C4.51720311 -0.36625971 4.51720311 -0.36625971 6.8125 1.375 C8 3 8 3 8 5 C6.68 5 5.36 5 4 5 C4 3.68 4 2.36 4 1 C2.68 0.67 1.36 0.34 0 0 Z " fill="#C64848" transform="translate(285,64)"/>
<path d="M0 0 C0.33 0 0.66 0 1 0 C1 2.31 1 4.62 1 7 C-0.32 7 -1.64 7 -3 7 C-3 6.01 -3 5.02 -3 4 C-2.34 4 -1.68 4 -1 4 C-0.67 2.68 -0.34 1.36 0 0 Z " fill="#C84446" transform="translate(239,64)"/>
<path d="M0 0 C0.66 0 1.32 0 2 0 C1.34 1.98 0.68 3.96 0 6 C-1.65 6 -3.3 6 -5 6 C-3.625 4 -3.625 4 -2 2 C-1.34 2 -0.68 2 0 2 C0 1.34 0 0.68 0 0 Z " fill="#BA5254" transform="translate(158,49)"/>
</svg>
